<?xml version="1.0" standalone="no"?>
<!DOCTYPE svg PUBLIC "-//W3C//DTD SVG 1.1//EN" "http://www.w3.org/Graphics/SVG/1.1/DTD/svg11.dtd" >
<svg xmlns="http://www.w3.org/2000/svg" xmlns:xlink="http://www.w3.org/1999/xlink" version="1.1">
<metadata>
Created by FontForge 20190801 at Thu Apr 17 09:59:05 2014
 By Unknown
Copyright \(c\) 2014 by Vyacheslav Kirilenko, Gayane Bagdasaryan. All rights reserved.
</metadata>
<defs>
<font id="Formular-Light" horiz-adv-x="630" >
  <font-face 
    font-family="Formular"
    font-weight="300"
    font-stretch="normal"
    units-per-em="1000"
    panose-1="2 0 0 0 0 0 0 0 0 0"
    ascent="800"
    descent="-200"
    x-height="500"
    cap-height="714"
    bbox="-134 -215 1395 966"
    underline-thickness="50"
    underline-position="-100"
    unicode-range="U+000D-FEFF"
  />
<missing-glyph horiz-adv-x="532" 
d="M60 0v714h412v-714h-412zM126 60h280v594h-280v-594z" />
    <glyph glyph-name="fi" unicode="fi" horiz-adv-x="582" 
d="M323 444h-140v-444h-63v444h-92v56h92v66c0 107 54 161 161 161h42v-56h-41c-75 0 -99 -46 -99 -105v-66h140v-56zM494 500v-500h-63v500h63zM497 648h-69v79h69v-79z" />
    <glyph glyph-name="fl" unicode="fl" horiz-adv-x="579" 
d="M323 444h-140v-444h-63v444h-92v56h92v66c0 107 54 161 161 161h42v-56h-41c-75 0 -99 -46 -99 -105v-66h140v-56zM494 727v-727h-63v727h63z" />
    <glyph glyph-name=".notdef" horiz-adv-x="532" 
d="M60 0v714h412v-714h-412zM126 60h280v594h-280v-594z" />
    <glyph glyph-name="NULL" horiz-adv-x="0" 
 />
    <glyph glyph-name="NULL" horiz-adv-x="0" 
 />
    <glyph glyph-name="CR" unicode="&#xd;" horiz-adv-x="278" 
 />
    <glyph glyph-name="space" unicode=" " horiz-adv-x="278" 
 />
    <glyph glyph-name="exclam" unicode="!" horiz-adv-x="302" 
d="M118 714h66v-297l-13 -239h-41l-12 239v297zM193 0h-84v102h84v-102z" />
    <glyph glyph-name="quotedbl" unicode="&#x22;" horiz-adv-x="366" 
d="M80 473v241h63v-241h-63zM223 473v241h63v-241h-63z" />
    <glyph glyph-name="numbersign" unicode="#" horiz-adv-x="577" 
d="M306 0l31 200h-145l-31 -200h-57l31 200h-100v52h109l31 196h-101v52h109l32 200h56l-32 -200h146l32 200h56l-32 -200h101v-52h-109l-31 -196h101v-52h-109l-31 -200h-57zM231 448l-31 -196h146l31 196h-146z" />
    <glyph glyph-name="dollar" unicode="$" horiz-adv-x="635" 
d="M344 395l45 -10c116 -23 182 -88 182 -196c0 -103 -86 -193 -227 -201v-86h-51v87c-133 11 -215 86 -232 199h65c17 -87 83 -132 167 -141v296l-39 8c-104 23 -167 80 -167 175c0 93 78 179 206 187v85h51v-86c119 -12 191 -85 206 -181h-64c-15 68 -59 112 -142 123
v-259zM374 326l-30 6v-287c92 5 162 64 162 144c0 79 -49 120 -132 137zM152 526c0 -61 31 -95 116 -114l25 -6v249c-83 -5 -141 -58 -141 -129z" />
    <glyph glyph-name="percent" unicode="%" horiz-adv-x="872" 
d="M257 0h-65l424 700h64zM209 714c105 0 159 -86 159 -189s-54 -189 -159 -189c-106 0 -159 86 -159 189s53 189 159 189zM209 387c68 0 101 60 101 138s-33 138 -101 138s-101 -60 -101 -138s33 -138 101 -138zM663 365c105 0 159 -86 159 -189s-54 -189 -159 -189
c-106 0 -159 86 -159 189s53 189 159 189zM663 38c68 0 101 60 101 138s-33 138 -101 138s-101 -60 -101 -138s33 -138 101 -138z" />
    <glyph glyph-name="ampersand" unicode="&#x26;" horiz-adv-x="697" 
d="M542 321h65c-8 -72 -33 -136 -70 -191l125 -130h-84l-70 73h-19c-56 -55 -127 -86 -203 -86c-127 0 -226 68 -226 195c0 84 47 145 103 182l31 20v20l-21 23c-41 43 -61 81 -61 137c0 85 64 150 161 150c96 0 170 -58 170 -148c0 -63 -38 -109 -102 -154l-44 -31
l198 -206c25 43 40 94 47 146zM282 45c72 0 133 31 177 80l-213 224l-41 -26c-52 -35 -83 -81 -83 -141c0 -88 75 -137 160 -137zM228 454l31 -33l47 33c47 33 72 67 72 111c0 56 -49 91 -104 91c-60 0 -97 -32 -97 -92c0 -45 24 -79 51 -110z" />
    <glyph glyph-name="quotesingle" unicode="'" horiz-adv-x="223" 
d="M80 473v241h63v-241h-63z" />
    <glyph glyph-name="parenleft" unicode="(" horiz-adv-x="271" 
d="M113 314c0 -201 71 -343 159 -455h-64c-91 107 -160 260 -160 455c0 189 66 338 151 445h64c-85 -109 -150 -251 -150 -445z" />
    <glyph glyph-name="parenright" unicode=")" horiz-adv-x="271" 
d="M158 314c0 194 -65 336 -150 445h64c85 -107 151 -256 151 -445c0 -195 -69 -348 -160 -455h-64c88 112 159 254 159 455z" />
    <glyph glyph-name="asterisk" unicode="*" horiz-adv-x="467" 
d="M206 714h55l-5 -173l164 59l17 -54l-165 -50l105 -136l-45 -34l-99 142l-98 -142l-45 34l105 137l-165 49l17 54l163 -59z" />
    <glyph glyph-name="plus" unicode="+" horiz-adv-x="684" 
d="M315 309v225h54v-225h225v-54h-225v-225h-54v225h-225v54h225z" />
    <glyph glyph-name="comma" unicode="," horiz-adv-x="244" 
d="M123 0h-43v102h84v-119l-48 -87h-41l48 87v17z" />
    <glyph glyph-name="hyphen" unicode="-" horiz-adv-x="360" 
d="M310 247h-260v57h260v-57z" />
    <glyph glyph-name="period" unicode="." horiz-adv-x="244" 
d="M164 0h-84v102h84v-102z" />
    <glyph glyph-name="slash" unicode="/" horiz-adv-x="393" 
d="M64 -141h-64l302 900h61z" />
    <glyph glyph-name="zero" unicode="0" horiz-adv-x="616" 
d="M308 714c144 0 251 -113 251 -364s-107 -363 -251 -363s-251 112 -251 363s107 364 251 364zM308 45c121 0 186 106 186 305s-65 306 -186 306s-186 -107 -186 -306s65 -305 186 -305z" />
    <glyph glyph-name="one" unicode="1" horiz-adv-x="493" 
d="M61 0v58h170v572h-19l-152 -102v70l152 102h84v-642h157v-58h-392z" />
    <glyph glyph-name="two" unicode="2" horiz-adv-x="572" 
d="M522 58v-58h-466v78l107 91c58 50 126 107 163 144c45 43 108 109 108 192c0 99 -61 151 -157 151c-88 0 -146 -46 -157 -142h-65c8 138 109 200 223 200c125 0 221 -69 221 -208c0 -96 -61 -166 -133 -235c-27 -25 -80 -72 -129 -115l-91 -78v-20h376z" />
    <glyph glyph-name="three" unicode="3" horiz-adv-x="555" 
d="M81 700h393v-78l-192 -170v-20c129 0 223 -78 223 -217c0 -145 -102 -228 -239 -228s-228 87 -236 202h65c8 -87 80 -144 171 -144c101 0 174 63 174 170c0 100 -61 162 -173 162c-21 0 -44 -2 -59 -6v82l188 169v20h-315v58z" />
    <glyph glyph-name="four" unicode="4" horiz-adv-x="603" 
d="M456 229h100v-58h-100v-171h-65v171h-351v78l311 451h105v-471zM111 229h280v404h-20l-260 -384v-20z" />
    <glyph glyph-name="five" unicode="5" horiz-adv-x="583" 
d="M302 469c148 0 226 -109 226 -234c0 -151 -93 -248 -233 -248c-149 0 -227 87 -235 202h65c11 -96 75 -144 167 -144c101 0 171 69 171 186c0 101 -63 180 -167 180c-69 0 -119 -24 -151 -72h-69l31 361h387v-58h-333l-18 -225h20c35 32 75 52 139 52z" />
    <glyph glyph-name="six" unicode="6" horiz-adv-x="581" 
d="M313 452c128 0 223 -95 223 -227c0 -133 -85 -238 -230 -238c-146 0 -249 90 -249 341c0 212 81 386 260 386c115 0 181 -68 200 -159h-65c-20 65 -61 101 -134 101c-124 0 -192 -112 -197 -276h20c26 31 85 72 172 72zM305 45c95 0 166 62 166 176s-73 173 -168 173
c-93 0 -167 -63 -167 -172c0 -112 75 -177 169 -177z" />
    <glyph glyph-name="seven" unicode="7" horiz-adv-x="538" 
d="M483 622l-312 -622h-69l313 622v20h-365v58h433v-78z" />
    <glyph glyph-name="eight" unicode="8" horiz-adv-x="602" 
d="M140 525c0 -85 74 -131 161 -131s161 46 161 131s-74 131 -161 131s-161 -46 -161 -131zM301 45c103 0 182 55 182 144c0 90 -75 147 -182 147s-182 -57 -182 -147c0 -89 79 -144 182 -144zM548 186c0 -117 -102 -199 -247 -199s-247 82 -247 199c0 100 70 149 121 171
v20c-40 21 -100 68 -100 149c0 113 95 188 226 188s227 -75 227 -188c0 -81 -61 -128 -101 -149v-20c51 -22 121 -71 121 -171z" />
    <glyph glyph-name="nine" unicode="9" horiz-adv-x="581" 
d="M268 249c-128 0 -223 95 -223 227c0 133 85 238 230 238c146 0 249 -90 249 -341c0 -212 -81 -386 -260 -386c-115 0 -181 68 -200 159h65c20 -65 61 -101 134 -101c124 0 192 112 197 276h-20c-26 -31 -85 -72 -172 -72zM276 656c-95 0 -166 -62 -166 -176
s73 -173 168 -173c93 0 167 63 167 172c0 112 -75 177 -169 177z" />
    <glyph glyph-name="colon" unicode=":" horiz-adv-x="244" 
d="M164 0h-84v102h84v-102zM164 398h-84v102h84v-102z" />
    <glyph glyph-name="semicolon" unicode=";" horiz-adv-x="244" 
d="M123 0h-43v102h84v-119l-48 -87h-41l48 87v17zM164 398h-84v102h84v-102z" />
    <glyph glyph-name="less" unicode="&#x3c;" horiz-adv-x="684" 
d="M594 91v-57l-504 219v57l504 219v-57l-417 -181v-20z" />
    <glyph glyph-name="equal" unicode="=" horiz-adv-x="683" 
d="M593 211v-54h-503v54h503zM593 407v-54h-503v54h503z" />
    <glyph glyph-name="greater" unicode="&#x3e;" horiz-adv-x="684" 
d="M90 34v57l417 180v20l-417 181v57l504 -219v-57z" />
    <glyph glyph-name="question" unicode="?" horiz-adv-x="534" 
d="M262 727c115 0 203 -71 203 -187c0 -104 -50 -150 -130 -214c-40 -32 -58 -47 -58 -119v-29h-63v29c0 91 30 117 86 165c61 50 102 86 102 168c0 68 -49 134 -140 134s-142 -42 -149 -145h-63c7 129 89 198 212 198zM288 0h-84v102h84v-102z" />
    <glyph glyph-name="at" unicode="@" horiz-adv-x="978" 
d="M688 -66l29 -48c-73 -48 -159 -76 -260 -76c-245 0 -398 164 -398 403c0 271 189 481 470 481c208 0 390 -124 390 -356c0 -149 -79 -300 -220 -300c-51 0 -88 19 -103 56h-20c-24 -24 -62 -56 -129 -56c-100 0 -160 69 -160 181c0 132 82 246 214 246
c56 0 96 -27 109 -50h20l8 36h55l-42 -254l-3 -21c-3 -11 -3 -24 -3 -32c0 -33 24 -52 59 -52c80 0 152 96 152 250c0 177 -134 298 -337 298c-225 0 -397 -173 -397 -426c0 -182 101 -350 339 -350c87 0 160 27 227 70zM454 92c89 0 145 80 148 195v5
c0 101 -58 119 -106 119c-91 0 -146 -99 -146 -192c0 -67 27 -127 104 -127z" />
    <glyph glyph-name="A" unicode="A" horiz-adv-x="673" 
d="M396 714l256 -714h-71l-81 231h-329l-81 -231h-69l255 714h120zM316 644l-124 -353h287l-124 353h-39z" />
    <glyph glyph-name="B" unicode="B" horiz-adv-x="692" 
d="M539 389v-20c65 -31 104 -95 104 -170c0 -112 -80 -199 -240 -199h-309v714h302c149 0 225 -81 225 -178c0 -64 -26 -116 -82 -147zM160 654v-250h239c88 0 156 28 156 128c0 89 -78 122 -157 122h-238zM160 60h243c91 0 174 35 174 145c0 104 -80 139 -173 139h-244
v-284z" />
    <glyph glyph-name="C" unicode="C" horiz-adv-x="710" 
d="M588 193h71c-30 -121 -125 -206 -276 -206c-210 0 -326 161 -326 370s116 370 327 370c139 0 238 -72 267 -192h-70c-31 84 -88 132 -197 132c-182 0 -261 -151 -261 -310c0 -160 78 -310 260 -310c109 0 178 58 205 146z" />
    <glyph glyph-name="D" unicode="D" horiz-adv-x="735" 
d="M94 714h255c219 0 329 -142 329 -357c0 -214 -110 -357 -329 -357h-255v714zM160 60h196c186 0 256 137 256 297s-70 297 -256 297h-196v-594z" />
    <glyph glyph-name="E" unicode="E" horiz-adv-x="646" 
d="M160 60h436v-60h-502v714h485v-60h-419v-252h341v-60h-341v-282z" />
    <glyph glyph-name="F" unicode="F" horiz-adv-x="628" 
d="M582 654h-422v-262h345v-60h-345v-332h-66v714h488v-60z" />
    <glyph glyph-name="G" unicode="G" horiz-adv-x="737" 
d="M367 310v60h310v-65c0 -164 -81 -318 -294 -318s-326 166 -326 370c0 208 116 370 328 370c143 0 241 -72 269 -192h-69c-25 80 -85 132 -200 132c-184 0 -262 -150 -262 -310c0 -158 75 -310 260 -310c155 0 226 105 226 238v25h-242z" />
    <glyph glyph-name="H" unicode="H" horiz-adv-x="753" 
d="M593 714h66v-714h-66v338h-433v-338h-66v714h66v-314h433v314z" />
    <glyph glyph-name="I" unicode="I" horiz-adv-x="268" 
d="M101 714h66v-714h-66v714z" />
    <glyph glyph-name="J" unicode="J" horiz-adv-x="570" 
d="M261 -13c-125 0 -210 78 -221 223h66c9 -108 67 -163 158 -163c89 0 148 54 148 174v493h66v-491c0 -148 -80 -236 -217 -236z" />
    <glyph glyph-name="K" unicode="K" horiz-adv-x="704" 
d="M94 0v714h66v-378l398 378h84l-229 -225l255 -489h-72l-227 432h-20l-189 -178v-254h-66z" />
    <glyph glyph-name="L" unicode="L" horiz-adv-x="611" 
d="M160 62h411v-62h-477v714h66v-652z" />
    <glyph glyph-name="M" unicode="M" horiz-adv-x="849" 
d="M94 0v714h115l208 -354h19l203 354h116v-714h-66v644h-20l-209 -359h-70l-210 359h-20v-644h-66z" />
    <glyph glyph-name="N" unicode="N" horiz-adv-x="757" 
d="M597 714h66v-714h-120l-363 644h-20v-644h-66v714h120l363 -644h20v644z" />
    <glyph glyph-name="O" unicode="O" horiz-adv-x="768" 
d="M384 727c213 0 327 -166 327 -370s-114 -370 -327 -370c-214 0 -327 166 -327 370s113 370 327 370zM384 47c184 0 261 154 261 310s-77 310 -261 310s-261 -154 -261 -310s77 -310 261 -310z" />
    <glyph glyph-name="P" unicode="P" horiz-adv-x="676" 
d="M94 714h293c152 0 235 -79 235 -208s-83 -208 -235 -208h-227v-298h-66v714zM160 358h216c133 0 180 58 180 148s-47 148 -180 148h-216v-296z" />
    <glyph glyph-name="Q" unicode="Q" horiz-adv-x="768" 
d="M384 727c213 0 327 -166 327 -370c0 -104 -29 -197 -86 -265l100 -155h-74l-72 112c-51 -39 -115 -62 -195 -62c-214 0 -327 166 -327 370s113 370 327 370zM384 47c68 0 122 20 162 55l-131 207h70l103 -160c39 57 57 132 57 208c0 156 -77 310 -261 310
s-261 -154 -261 -310s77 -310 261 -310z" />
    <glyph glyph-name="R" unicode="R" horiz-adv-x="702" 
d="M94 714h308c148 0 229 -75 229 -202c0 -87 -39 -149 -111 -180l117 -332h-69l-112 315c-15 -3 -33 -4 -54 -4h-242v-311h-66v714zM160 371h232c127 0 173 54 173 141s-45 142 -173 142h-232v-283z" />
    <glyph glyph-name="S" unicode="S" horiz-adv-x="653" 
d="M273 420l134 -28c104 -21 186 -74 186 -198c0 -109 -88 -207 -264 -207c-161 0 -262 80 -281 204h69c21 -103 109 -144 215 -144c108 0 195 55 195 147c0 84 -55 119 -139 137l-139 29c-100 22 -167 73 -167 176c0 107 86 191 242 191c144 0 235 -77 251 -186h-67
c-19 77 -70 126 -186 126c-95 0 -174 -46 -174 -131c0 -71 48 -100 125 -116z" />
    <glyph glyph-name="T" unicode="T" horiz-adv-x="585" 
d="M566 714v-58h-240v-656h-66v656h-241v58h547z" />
    <glyph glyph-name="U" unicode="U" horiz-adv-x="732" 
d="M574 714h66v-462c0 -165 -97 -265 -274 -265s-274 100 -274 265v462h66v-463c0 -123 72 -204 208 -204s208 81 208 204v463z" />
    <glyph glyph-name="V" unicode="V" horiz-adv-x="653" 
d="M256 0l-235 714h70l210 -644h52l210 644h69l-235 -714h-141z" />
    <glyph glyph-name="W" unicode="W" horiz-adv-x="855" 
d="M380 458h96l149 -388h20l83 644h65l-92 -714h-115l-148 391h-20l-149 -391h-115l-92 714h66l83 -644h20z" />
    <glyph glyph-name="X" unicode="X" horiz-adv-x="628" 
d="M525 0l-191 337h-40l-196 -337h-75l221 378l-189 336h75l165 -294h40l166 294h75l-191 -332l220 -382h-80z" />
    <glyph glyph-name="Y" unicode="Y" horiz-adv-x="628" 
d="M300 373h28l206 341h73l-260 -434v-280h-66v280l-260 434h73z" />
    <glyph glyph-name="Z" unicode="Z" horiz-adv-x="636" 
d="M572 714v-80l-444 -554v-20h458v-60h-536v81l444 553v20h-418v60h496z" />
    <glyph glyph-name="bracketleft" unicode="[" horiz-adv-x="301" 
d="M241 -141h-161v900h161v-54h-98v-792h98v-54z" />
    <glyph glyph-name="backslash" unicode="\" horiz-adv-x="393" 
d="M393 -141h-64l-299 900h61z" />
    <glyph glyph-name="bracketright" unicode="]" horiz-adv-x="301" 
d="M221 -141h-161v54h98v792h-98v54h161v-900z" />
    <glyph glyph-name="asciicircum" unicode="^" horiz-adv-x="530" 
d="M102 302h-58l195 389h52l195 -389h-58l-155 312h-16z" />
    <glyph glyph-name="underscore" unicode="_" horiz-adv-x="502" 
d="M503 -125h-504v54h504v-54z" />
    <glyph glyph-name="grave" unicode="`" horiz-adv-x="241" 
d="M145 582l-105 145h78l83 -145h-56z" />
    <glyph glyph-name="a" unicode="a" horiz-adv-x="546" 
d="M408 0v56h-20c-31 -40 -89 -69 -162 -69c-118 0 -181 77 -181 161c0 79 49 164 187 164h174v31c0 64 -38 114 -135 114c-83 0 -126 -33 -130 -86h-63c8 91 84 142 193 142c121 0 198 -62 198 -166v-347h-61zM235 43c93 0 171 65 171 157v59h-157
c-92 0 -141 -42 -141 -106c0 -71 51 -110 127 -110z" />
    <glyph glyph-name="b" unicode="b" horiz-adv-x="604" 
d="M328 513c140 0 223 -114 223 -263c0 -148 -83 -263 -223 -263c-83 0 -134 34 -162 69h-20v-56h-61v727h63v-283h20c28 36 77 69 160 69zM320 43c109 0 168 84 168 207s-59 207 -168 207c-123 0 -172 -101 -172 -207c0 -105 49 -207 172 -207z" />
    <glyph glyph-name="c" unicode="c" horiz-adv-x="541" 
d="M432 143h63c-20 -92 -90 -156 -203 -156c-155 0 -239 118 -239 263c0 147 84 263 239 263c116 0 182 -64 201 -152h-63c-19 57 -61 96 -138 96c-125 0 -176 -96 -176 -205c0 -108 52 -209 176 -209c80 0 125 40 140 100z" />
    <glyph glyph-name="d" unicode="d" horiz-adv-x="604" 
d="M276 513c83 0 132 -33 160 -69h20v283h63v-727h-61v56h-20c-28 -35 -79 -69 -162 -69c-140 0 -223 115 -223 263c0 149 83 263 223 263zM284 43c123 0 172 102 172 207c0 106 -49 207 -172 207c-109 0 -168 -84 -168 -207s59 -207 168 -207z" />
    <glyph glyph-name="e" unicode="e" horiz-adv-x="558" 
d="M505 281v-20h-389v-14c0 -124 69 -204 175 -204c77 0 125 34 141 89h63c-16 -80 -83 -145 -204 -145c-155 0 -238 120 -238 269c0 152 88 257 237 257c145 0 215 -114 215 -232zM288 457c-102 0 -157 -69 -168 -140h320c-5 71 -56 140 -152 140z" />
    <glyph glyph-name="f" unicode="f" horiz-adv-x="355" 
d="M323 444h-140v-444h-63v444h-92v56h92v66c0 107 54 161 161 161h42v-56h-41c-75 0 -99 -46 -99 -105v-66h140v-56z" />
    <glyph glyph-name="g" unicode="g" horiz-adv-x="604" 
d="M458 500h61v-475c0 -140 -82 -231 -226 -231c-125 0 -203 54 -220 147h62c16 -68 76 -91 157 -91c112 0 164 64 164 175v44h-20c-29 -36 -80 -69 -159 -69c-139 0 -224 110 -224 256c0 147 85 257 224 257c81 0 132 -34 161 -69h20v56zM284 56c120 0 172 96 172 200
s-52 201 -172 201c-107 0 -168 -80 -168 -201c0 -120 62 -200 168 -200z" />
    <glyph glyph-name="h" unicode="h" horiz-adv-x="592" 
d="M515 0h-63v307c0 100 -46 150 -139 150c-99 0 -165 -86 -165 -183v-274h-63v727h63v-283h20c27 39 87 69 154 69c121 0 193 -74 193 -191v-322z" />
    <glyph glyph-name="i" unicode="i" horiz-adv-x="239" 
d="M151 500v-500h-63v500h63zM154 648h-69v79h69v-79z" />
    <glyph glyph-name="j" unicode="j" horiz-adv-x="250" 
d="M15 -200h-63v56h47c75 0 101 39 101 111v533h63v-532c0 -100 -48 -168 -148 -168zM165 648h-69v79h69v-79z" />
    <glyph glyph-name="k" unicode="k" horiz-adv-x="534" 
d="M521 0h-69l-154 287h-20l-130 -142v-145h-63v727h63v-501l257 274h79l-145 -154z" />
    <glyph glyph-name="l" unicode="l" horiz-adv-x="233" 
d="M148 727v-727h-63v727h63z" />
    <glyph glyph-name="m" unicode="m" horiz-adv-x="829" 
d="M592 513c113 0 160 -73 160 -186v-327h-63v326c0 87 -35 131 -104 131c-85 0 -135 -65 -135 -158v-299h-63v324c0 88 -39 133 -103 133c-91 0 -136 -77 -136 -176v-281h-63v500h61v-50h20c25 39 62 63 129 63c60 0 104 -21 133 -69h20c33 45 77 69 144 69z" />
    <glyph glyph-name="n" unicode="n" horiz-adv-x="592" 
d="M515 0h-63v307c0 100 -46 150 -139 150c-99 0 -165 -86 -165 -183v-274h-63v500h61v-56h20c27 39 87 69 156 69c121 0 193 -74 193 -191v-322z" />
    <glyph glyph-name="o" unicode="o" horiz-adv-x="588" 
d="M294 513c155 0 241 -118 241 -263s-86 -263 -241 -263c-156 0 -241 118 -241 263s85 263 241 263zM294 43c120 0 178 102 178 207s-58 207 -178 207c-123 0 -178 -102 -178 -207s55 -207 178 -207z" />
    <glyph glyph-name="p" unicode="p" horiz-adv-x="604" 
d="M328 -13c-83 0 -132 33 -160 69h-20v-256h-63v700h61v-56h20c28 35 79 69 162 69c140 0 223 -115 223 -263c0 -149 -83 -263 -223 -263zM320 457c-123 0 -172 -102 -172 -207c0 -106 49 -207 172 -207c109 0 168 84 168 207s-59 207 -168 207z" />
    <glyph glyph-name="q" unicode="q" horiz-adv-x="604" 
d="M276 -13c-140 0 -223 114 -223 263c0 148 83 263 223 263c83 0 134 -34 162 -69h20v56h61v-700h-63v256h-20c-28 -36 -77 -69 -160 -69zM284 457c-109 0 -168 -84 -168 -207s59 -207 168 -207c123 0 172 101 172 207c0 105 -49 207 -172 207z" />
    <glyph glyph-name="r" unicode="r" horiz-adv-x="379" 
d="M349 500v-58h-38c-96 0 -163 -63 -163 -178v-264h-63v500h61v-61h20c29 35 81 61 149 61h34z" />
    <glyph glyph-name="s" unicode="s" horiz-adv-x="501" 
d="M258 -13c-137 0 -204 60 -217 152h62c12 -63 65 -96 149 -96c87 0 142 32 142 96c0 49 -27 79 -99 90c-22 3 -85 13 -119 21c-67 13 -115 49 -115 120c0 81 64 143 192 143c113 0 180 -55 191 -139h-62c-7 55 -64 83 -133 83c-79 0 -125 -30 -125 -81
c0 -44 28 -64 85 -75c17 -3 34 -5 49 -8l62 -10c83 -15 137 -57 137 -142c0 -80 -71 -154 -199 -154z" />
    <glyph glyph-name="t" unicode="t" horiz-adv-x="375" 
d="M183 500h133v-56h-133v-303c0 -57 24 -85 99 -85h34v-56h-35c-107 0 -161 35 -161 134v310h-92v56h92v155h63v-155z" />
    <glyph glyph-name="u" unicode="u" horiz-adv-x="592" 
d="M77 500h63v-307c0 -100 46 -150 139 -150c98 0 165 86 165 183v274h63v-500h-61v56h-20c-27 -39 -87 -69 -156 -69c-121 0 -193 74 -193 191v322z" />
    <glyph glyph-name="v" unicode="v" horiz-adv-x="524" 
d="M199 0l-175 500h65l154 -438h41l149 438h67l-178 -500h-123z" />
    <glyph glyph-name="w" unicode="w" horiz-adv-x="668" 
d="M289 325h94l92 -263h20l61 438h62l-70 -500h-109l-95 265h-20l-95 -265h-109l-70 500h62l62 -438h20z" />
    <glyph glyph-name="x" unicode="x" horiz-adv-x="531" 
d="M418 0l-134 221h-36l-139 -221h-70l162 256l-145 244h68l124 -209h36l126 209h68l-147 -241l161 -259h-74z" />
    <glyph glyph-name="y" unicode="y" horiz-adv-x="516" 
d="M197 -200h-64l103 247l-212 453h68l165 -353h24l149 353h66z" />
    <glyph glyph-name="z" unicode="z" horiz-adv-x="504" 
d="M454 0h-404v76l326 349v19h-309v56h387v-75l-326 -349v-20h326v-56z" />
    <glyph glyph-name="braceleft" unicode="{" horiz-adv-x="375" 
d="M163 319v-20c31 -11 50 -41 50 -102v-188c0 -72 37 -96 89 -96h33v-54h-33c-86 0 -152 48 -152 149v177c0 61 -9 97 -60 97h-10v54h10c51 0 60 36 60 97v177c0 101 66 149 152 149h33v-54h-33c-52 0 -89 -24 -89 -96v-188c0 -61 -19 -91 -50 -102z" />
    <glyph glyph-name="bar" unicode="|" horiz-adv-x="243" 
d="M90 -141v900h63v-900h-63z" />
    <glyph glyph-name="braceright" unicode="}" horiz-adv-x="375" 
d="M212 299v20c-31 11 -50 41 -50 102v188c0 72 -37 96 -89 96h-33v54h33c86 0 152 -48 152 -149v-177c0 -61 9 -97 60 -97h10v-54h-10c-51 0 -60 -36 -60 -97v-177c0 -101 -66 -149 -152 -149h-33v54h33c52 0 89 24 89 96v188c0 61 19 91 50 102z" />
    <glyph glyph-name="asciitilde" unicode="~" horiz-adv-x="669" 
d="M525 333h54c0 -97 -48 -136 -123 -136c-102 0 -167 117 -248 117c-41 0 -64 -25 -64 -85h-54c0 97 48 136 123 136c103 0 168 -117 248 -117c43 0 64 25 64 85z" />
    <glyph glyph-name="uni00A0" unicode="&#xa0;" horiz-adv-x="278" 
 />
    <glyph glyph-name="exclamdown" unicode="&#xa1;" horiz-adv-x="302" 
d="M184 -200h-66v283l12 239h41l13 -239v-283zM193 398h-84v102h84v-102z" />
    <glyph glyph-name="cent" unicode="&#xa2;" horiz-adv-x="541" 
d="M432 143h63c-19 -87 -82 -147 -182 -155v-68h-51v69c-136 13 -209 126 -209 261s73 248 209 261v69h51v-68c103 -8 161 -68 180 -151h-63c-17 51 -53 88 -117 95v-412c68 7 104 43 119 99zM116 252c0 -100 43 -191 146 -207v410c-104 -13 -146 -104 -146 -203z" />
    <glyph glyph-name="sterling" unicode="&#xa3;" 
d="M198 58h392v-58h-525v58h21c51 0 72 33 72 94v138h-93v58h93v156c0 137 79 210 202 210c117 0 190 -68 194 -195h-64c-3 80 -36 137 -130 137c-100 0 -137 -71 -137 -153v-155h217v-58h-217v-129c0 -32 -1 -59 -25 -83v-20z" />
    <glyph glyph-name="currency" unicode="&#xa4;" horiz-adv-x="725" 
d="M594 10l-68 67c-45 -36 -100 -58 -163 -58s-119 22 -164 58l-68 -67l-41 41l67 68c-36 45 -58 101 -58 164s22 118 58 163l-67 68l41 41l68 -67c45 35 101 57 164 57s118 -22 163 -57l68 67l41 -41l-67 -68c35 -45 57 -100 57 -163s-22 -119 -57 -164l67 -68zM363 73
c112 0 199 91 199 210c0 117 -87 208 -199 208s-201 -91 -201 -208c0 -119 89 -210 201 -210z" />
    <glyph glyph-name="yen" unicode="&#xa5;" horiz-adv-x="596" 
d="M114 296v52h101l-194 352h70l193 -352h28l193 352h70l-195 -352h102v-52h-131l-21 -38v-40h152v-52h-152v-166h-65v166h-151v52h151v40l-21 38h-130z" />
    <glyph glyph-name="brokenbar" unicode="&#xa6;" horiz-adv-x="243" 
d="M90 417v342h63v-342h-63zM90 -141v342h63v-342h-63z" />
    <glyph glyph-name="section" unicode="&#xa7;" horiz-adv-x="578" 
d="M432 122v-20c27 -21 49 -54 49 -113c0 -92 -82 -163 -197 -163c-118 0 -203 69 -206 195h64c3 -80 50 -137 143 -137c85 0 131 52 131 105c0 51 -25 83 -76 98l-136 42c-108 35 -144 80 -144 155c0 68 49 121 86 134v20c-27 21 -49 54 -49 113c0 92 77 163 193 163
c118 0 200 -70 205 -195h-64c-3 80 -49 137 -142 137c-86 0 -127 -52 -127 -105c0 -49 25 -81 75 -97l137 -43c108 -35 144 -80 144 -155c0 -69 -50 -120 -86 -134zM222 186l154 -48c28 14 77 45 77 110c0 60 -33 87 -97 106l-154 48c-28 -14 -77 -45 -77 -110
c0 -60 33 -87 97 -106z" />
    <glyph glyph-name="dieresis" unicode="&#xa8;" horiz-adv-x="325" 
d="M109 648h-69v79h69v-79zM285 648h-69v79h69v-79z" />
    <glyph glyph-name="copyright" unicode="&#xa9;" horiz-adv-x="860" 
d="M430 727c204 0 367 -166 367 -370s-163 -370 -367 -370s-367 166 -367 370s163 370 367 370zM430 43c173 0 309 140 309 314c0 175 -136 316 -309 316s-309 -141 -309 -316c0 -174 136 -314 309 -314zM545 295h53c-11 -76 -69 -136 -157 -136c-114 0 -179 88 -179 197
c0 112 65 198 179 198c83 0 142 -51 153 -127h-53c-11 49 -40 81 -100 81c-89 0 -126 -72 -126 -152s37 -149 126 -149c61 0 93 37 104 88z" />
    <glyph glyph-name="ordfeminine" unicode="&#xaa;" horiz-adv-x="425" 
d="M307 333v44h-5c-25 -29 -69 -51 -124 -51c-91 0 -138 60 -138 123c0 61 37 123 142 123h123v21c0 44 -28 78 -93 78c-56 0 -87 -25 -90 -64h-57c5 73 65 114 146 114c92 0 149 -47 149 -127v-261h-53zM184 375c64 0 121 49 121 110v40h-111c-63 0 -99 -31 -99 -74
c0 -47 38 -76 89 -76z" />
    <glyph glyph-name="guillemotleft" unicode="&#xab;" horiz-adv-x="526" 
d="M117 292v-20l158 -168h-71l-144 148v59l144 149h71zM308 292v-20l158 -168h-71l-144 148v59l144 149h71z" />
    <glyph glyph-name="logicalnot" unicode="&#xac;" horiz-adv-x="683" 
d="M540 111v214h-450v53h503v-267h-53z" />
    <glyph glyph-name="uni00AD" unicode="&#xad;" horiz-adv-x="360" 
d="M310 247h-260v57h260v-57z" />
    <glyph glyph-name="registered" unicode="&#xae;" horiz-adv-x="860" 
d="M430 727c204 0 367 -166 367 -370s-163 -370 -367 -370s-367 166 -367 370s163 370 367 370zM430 43c173 0 309 140 309 314c0 175 -136 316 -309 316s-309 -141 -309 -316c0 -174 136 -314 309 -314zM294 547h170c80 0 124 -41 124 -110c0 -47 -19 -80 -57 -97l61 -174
h-54l-57 161h-135v-161h-52v381zM346 373h111c57 0 79 25 79 64c0 40 -22 63 -79 63h-111v-127z" />
    <glyph glyph-name="overscore" unicode="&#xaf;" horiz-adv-x="354" 
d="M314 648h-274v54h274v-54z" />
    <glyph glyph-name="degree" unicode="&#xb0;" horiz-adv-x="475" 
d="M40 523c0 113 85 198 197 198c113 0 198 -85 198 -198c0 -112 -85 -197 -198 -197c-112 0 -197 85 -197 197zM95 523c0 -84 58 -151 142 -151c85 0 143 67 143 151s-58 152 -143 152c-84 0 -142 -68 -142 -152z" />
    <glyph glyph-name="plusminus" unicode="&#xb1;" horiz-adv-x="684" 
d="M90 0v54h504v-54h-504zM315 354v180h54v-180h225v-54h-225v-180h-54v180h-224v54h224z" />
    <glyph glyph-name="twosuperior" unicode="&#xb2;" horiz-adv-x="358" 
d="M124 382h194v-49h-277v62c21 15 41 29 60 44c33 24 70 53 91 72c25 23 58 53 58 92c0 44 -27 69 -74 69c-52 0 -79 -26 -81 -77h-55c3 91 64 126 137 126s128 -40 128 -117c0 -56 -33 -94 -78 -129l-103 -80v-13z" />
    <glyph glyph-name="threesuperior" unicode="&#xb3;" horiz-adv-x="367" 
d="M220 585v-13c60 -9 106 -51 106 -119c0 -81 -62 -127 -143 -127c-83 0 -139 52 -143 124h54c4 -47 42 -75 89 -75c51 0 88 29 88 78c0 47 -32 77 -87 77c-17 0 -23 0 -35 -3v55l83 68v15h-163v49h242v-55z" />
    <glyph glyph-name="acute" unicode="&#xb4;" horiz-adv-x="241" 
d="M201 727l-105 -145h-56l83 145h78z" />
    <glyph glyph-name="mu" unicode="&#xb5;" horiz-adv-x="601" 
d="M86 500h63v-307c0 -100 46 -150 139 -150c98 0 165 86 165 183v274h63v-500h-61v56h-20c-27 -39 -87 -69 -156 -69c-54 0 -97 14 -130 41v-228h-63v700z" />
    <glyph glyph-name="paragraph" unicode="&#xb6;" horiz-adv-x="632" 
d="M320 -177h-60v491c-120 0 -220 60 -220 200s89 200 220 200h322v-50h-80v-841h-60v841h-122v-841z" />
    <glyph glyph-name="middot" unicode="&#xb7;" horiz-adv-x="244" 
d="M164 264h-84v102h84v-102z" />
    <glyph glyph-name="cedilla" unicode="&#xb8;" horiz-adv-x="248" 
d="M97 23h41l-34 -86h13c7 4 16 8 29 8c35 0 64 -31 64 -75c0 -38 -26 -80 -87 -80c-51 0 -80 31 -83 64h47c5 -15 17 -23 36 -23c23 0 38 14 38 39c0 23 -15 38 -36 38c-13 0 -24 -4 -31 -11h-47z" />
    <glyph glyph-name="onesuperior" unicode="&#xb9;" horiz-adv-x="329" 
d="M192 382h97v-49h-249v49h97v264h-16l-80 -47v57l97 58h54v-332z" />
    <glyph glyph-name="ordmasculine" unicode="&#xba;" horiz-adv-x="442" 
d="M221 721c116 0 181 -88 181 -197s-65 -198 -181 -198s-181 89 -181 198s65 197 181 197zM221 375c85 0 126 75 126 149c0 75 -41 147 -126 147s-126 -72 -126 -147c0 -74 41 -149 126 -149z" />
    <glyph glyph-name="guillemotright" unicode="&#xbb;" horiz-adv-x="526" 
d="M409 272v20l-158 168h71l144 -149v-59l-144 -148h-71zM218 272v20l-158 168h71l144 -149v-59l-144 -148h-71z" />
    <glyph glyph-name="onequarter" unicode="&#xbc;" horiz-adv-x="861" 
d="M255 0h-62l424 700h61zM766 139h55v-49h-55v-90h-55v90h-197v53l175 238h77v-242zM582 139h129v172h-15l-114 -157v-15zM192 382h97v-49h-249v49h97v264h-16l-80 -47v57l97 58h54v-332z" />
    <glyph glyph-name="onehalf" unicode="&#xbd;" horiz-adv-x="864" 
d="M256 0h-62l424 700h61zM192 382h97v-49h-249v49h97v264h-16l-80 -47v57l97 58h54v-332zM630 49h194v-49h-277v62c21 15 41 29 60 44c33 24 70 53 91 72c25 23 58 53 58 92c0 44 -27 69 -74 69c-52 0 -79 -26 -81 -77h-55c3 91 64 126 137 126s128 -40 128 -117
c0 -56 -33 -94 -78 -129l-103 -80v-13z" />
    <glyph glyph-name="threequarters" unicode="&#xbe;" horiz-adv-x="864" 
d="M258 0h-62l424 700h61zM769 139h55v-49h-55v-90h-55v90h-197v53l175 238h77v-242zM585 139h129v172h-15l-114 -157v-15zM219 585v-13c60 -9 106 -51 106 -119c0 -81 -62 -127 -143 -127c-83 0 -139 52 -143 124h54c4 -47 42 -75 89 -75c51 0 88 29 88 78
c0 47 -32 77 -87 77c-17 0 -23 0 -35 -3v55l83 68v15h-163v49h242v-55z" />
    <glyph glyph-name="questiondown" unicode="&#xbf;" horiz-adv-x="528" 
d="M264 -206c-117 0 -208 65 -208 184c0 103 48 150 123 204c47 32 65 45 65 121v19h63v-19c0 -91 -30 -118 -86 -161c-62 -48 -102 -80 -102 -164c0 -71 50 -131 146 -131c87 0 139 45 144 145h63c-7 -125 -85 -198 -208 -198zM233 500h84v-102h-84v102z" />
    <glyph glyph-name="Agrave" unicode="&#xc0;" horiz-adv-x="673" 
d="M396 714l256 -714h-71l-81 231h-329l-81 -231h-69l255 714h120zM316 644l-124 -353h287l-124 353h-39zM306 767l-105 129h78l83 -129h-56z" />
    <glyph glyph-name="Aacute" unicode="&#xc1;" horiz-adv-x="673" 
d="M396 714l256 -714h-71l-81 231h-329l-81 -231h-69l255 714h120zM316 644l-124 -353h287l-124 353h-39zM469 896l-105 -129h-56l83 129h78z" />
    <glyph glyph-name="Acircumflex" unicode="&#xc2;" horiz-adv-x="673" 
d="M396 714l256 -714h-71l-81 231h-329l-81 -231h-69l255 714h120zM316 644l-124 -353h287l-124 353h-39zM197 767l105 129h70l105 -129h-64l-65 79h-20l-65 -79h-66z" />
    <glyph glyph-name="Atilde" unicode="&#xc3;" horiz-adv-x="673" 
d="M396 714l256 -714h-71l-81 231h-329l-81 -231h-69l255 714h120zM316 644l-124 -353h287l-124 353h-39zM450 896h47c0 -92 -34 -129 -90 -129c-66 0 -109 80 -149 80c-33 0 -39 -40 -39 -80h-47c0 92 34 129 90 129c66 0 109 -80 149 -80c33 0 39 39 39 80z" />
    <glyph glyph-name="Adieresis" unicode="&#xc4;" horiz-adv-x="673" 
d="M396 714l256 -714h-71l-81 231h-329l-81 -231h-69l255 714h120zM316 644l-124 -353h287l-124 353h-39zM283 817h-69v79h69v-79zM459 817h-69v79h69v-79z" />
    <glyph glyph-name="Aring" unicode="&#xc5;" horiz-adv-x="673" 
d="M337 897c58 0 105 -47 105 -105c0 -35 -16 -66 -43 -86l253 -706h-71l-81 231h-329l-81 -231h-69l252 707c-27 19 -42 50 -42 85c0 58 48 105 106 105zM316 644l-124 -353h287l-124 353h-39zM337 732c35 0 60 25 60 60s-25 60 -60 60s-60 -25 -60 -60s25 -60 60 -60z" />
    <glyph glyph-name="AE" unicode="&#xc6;" horiz-adv-x="992" 
d="M392 714h533v-60h-369v-252h291v-60h-291v-282h386v-60h-452v231h-283l-121 -231h-76zM429 654l-191 -363h252v363h-61z" />
    <glyph glyph-name="Ccedilla" unicode="&#xc7;" horiz-adv-x="710" 
d="M588 193h71c-30 -121 -125 -206 -276 -206c-4 0 -8 1 -11 1l-20 -51h13c7 4 16 8 29 8c35 0 64 -31 64 -75c0 -38 -26 -80 -87 -80c-51 0 -80 31 -83 64h47c5 -15 17 -23 36 -23c23 0 38 14 38 39c0 23 -15 38 -36 38c-13 0 -24 -4 -31 -11h-47l37 94
c-178 24 -275 173 -275 366c0 209 116 370 327 370c139 0 238 -72 267 -192h-70c-31 84 -88 132 -197 132c-182 0 -261 -151 -261 -310c0 -160 78 -310 260 -310c109 0 178 58 205 146z" />
    <glyph glyph-name="Egrave" unicode="&#xc8;" horiz-adv-x="646" 
d="M160 60h436v-60h-502v714h485v-60h-419v-252h341v-60h-341v-282zM331 767l-105 129h78l83 -129h-56z" />
    <glyph glyph-name="Eacute" unicode="&#xc9;" horiz-adv-x="646" 
d="M160 60h436v-60h-502v714h485v-60h-419v-252h337v-60h-337v-282zM434 896l-105 -129h-56l83 129h78z" />
    <glyph glyph-name="Ecircumflex" unicode="&#xca;" horiz-adv-x="646" 
d="M160 60h436v-60h-502v714h485v-60h-419v-252h341v-60h-341v-282zM194 767l105 129h70l105 -129h-64l-65 79h-20l-65 -79h-66z" />
    <glyph glyph-name="Edieresis" unicode="&#xcb;" horiz-adv-x="646" 
d="M160 60h436v-60h-502v714h485v-60h-419v-252h341v-60h-341v-282zM276 817h-69v79h69v-79zM452 817h-69v79h69v-79z" />
    <glyph glyph-name="Igrave" unicode="&#xcc;" horiz-adv-x="268" 
d="M101 714h66v-714h-66v714zM107 767l-105 129h78l83 -129h-56z" />
    <glyph glyph-name="Iacute" unicode="&#xcd;" horiz-adv-x="268" 
d="M101 714h66v-714h-66v714zM268 896l-105 -129h-56l83 129h78z" />
    <glyph glyph-name="Icircumflex" unicode="&#xce;" horiz-adv-x="268" 
d="M101 714h66v-714h-66v714zM-5 767l105 129h70l105 -129h-64l-65 79h-20l-65 -79h-66z" />
    <glyph glyph-name="Idieresis" unicode="&#xcf;" horiz-adv-x="268" 
d="M101 714h66v-714h-66v714zM82 817h-69v79h69v-79zM258 817h-69v79h69v-79z" />
    <glyph glyph-name="Eth" unicode="&#xd0;" horiz-adv-x="759" 
d="M20 344v56h98v314h255c219 0 329 -142 329 -357c0 -214 -110 -357 -329 -357h-255v344h-98zM184 60h196c186 0 256 137 256 297s-70 297 -256 297h-196v-254h234v-56h-234v-284z" />
    <glyph glyph-name="Ntilde" unicode="&#xd1;" horiz-adv-x="757" 
d="M597 714h66v-714h-120l-363 644h-20v-644h-66v714h120l363 -644h20v644zM494 896h47c0 -92 -34 -129 -90 -129c-66 0 -109 80 -149 80c-33 0 -39 -40 -39 -80h-47c0 92 34 129 90 129c66 0 109 -80 149 -80c33 0 39 39 39 80z" />
    <glyph glyph-name="Ograve" unicode="&#xd2;" horiz-adv-x="768" 
d="M384 727c213 0 327 -166 327 -370s-114 -370 -327 -370c-214 0 -327 166 -327 370s113 370 327 370zM384 47c184 0 261 154 261 310s-77 310 -261 310s-261 -154 -261 -310s77 -310 261 -310zM368 767l-105 129h78l83 -129h-56z" />
    <glyph glyph-name="Oacute" unicode="&#xd3;" horiz-adv-x="768" 
d="M384 727c213 0 327 -166 327 -370s-114 -370 -327 -370c-214 0 -327 166 -327 370s113 370 327 370zM384 47c184 0 261 154 261 310s-77 310 -261 310s-261 -154 -261 -310s77 -310 261 -310zM513 896l-105 -129h-56l83 129h78z" />
    <glyph glyph-name="Ocircumflex" unicode="&#xd4;" horiz-adv-x="768" 
d="M384 727c213 0 327 -166 327 -370s-114 -370 -327 -370c-214 0 -327 166 -327 370s113 370 327 370zM384 47c184 0 261 154 261 310s-77 310 -261 310s-261 -154 -261 -310s77 -310 261 -310zM244 767l105 129h70l105 -129h-64l-65 79h-20l-65 -79h-66z" />
    <glyph glyph-name="Otilde" unicode="&#xd5;" horiz-adv-x="768" 
d="M384 727c213 0 327 -166 327 -370s-114 -370 -327 -370c-214 0 -327 166 -327 370s113 370 327 370zM384 47c184 0 261 154 261 310s-77 310 -261 310s-261 -154 -261 -310s77 -310 261 -310zM500 896h47c0 -92 -34 -129 -90 -129c-66 0 -109 80 -149 80
c-33 0 -39 -40 -39 -80h-47c0 92 34 129 90 129c66 0 109 -80 149 -80c33 0 39 39 39 80z" />
    <glyph glyph-name="Odieresis" unicode="&#xd6;" horiz-adv-x="768" 
d="M330 817h-69v79h69v-79zM506 817h-69v79h69v-79zM384 727c213 0 327 -166 327 -370s-114 -370 -327 -370c-214 0 -327 166 -327 370s113 370 327 370zM384 47c184 0 261 154 261 310s-77 310 -261 310s-261 -154 -261 -310s77 -310 261 -310z" />
    <glyph glyph-name="multiply" unicode="&#xd7;" horiz-adv-x="632" 
d="M278 282l-188 189l37 37l189 -189l189 189l37 -37l-189 -189l189 -189l-37 -37l-189 188l-189 -188l-37 37z" />
    <glyph glyph-name="Oslash" unicode="&#xd8;" horiz-adv-x="768" 
d="M384 727c88 0 156 -27 209 -74l50 61h68l-81 -99c55 -67 81 -158 81 -258c0 -204 -114 -370 -327 -370c-88 0 -157 26 -210 73l-49 -60h-68l81 98c-55 68 -81 158 -81 259c0 204 113 370 327 370zM384 47c184 0 261 154 261 310c0 76 -18 150 -57 207l-374 -455
c41 -39 97 -62 170 -62zM123 357c0 -76 17 -151 56 -208l374 456c-41 39 -97 62 -169 62c-184 0 -261 -154 -261 -310z" />
    <glyph glyph-name="Ugrave" unicode="&#xd9;" horiz-adv-x="732" 
d="M574 714h66v-462c0 -165 -97 -265 -274 -265s-274 100 -274 265v462h66v-463c0 -123 72 -204 208 -204s208 81 208 204v463zM360 767l-105 129h78l83 -129h-56z" />
    <glyph glyph-name="Uacute" unicode="&#xda;" horiz-adv-x="732" 
d="M574 714h66v-462c0 -165 -97 -265 -274 -265s-274 100 -274 265v462h66v-463c0 -123 72 -204 208 -204s208 81 208 204v463zM475 896l-105 -129h-56l83 129h78z" />
    <glyph glyph-name="Ucircumflex" unicode="&#xdb;" horiz-adv-x="732" 
d="M574 714h66v-462c0 -165 -97 -265 -274 -265s-274 100 -274 265v462h66v-463c0 -123 72 -204 208 -204s208 81 208 204v463zM226 767l105 129h70l105 -129h-64l-65 79h-20l-65 -79h-66z" />
    <glyph glyph-name="Udieresis" unicode="&#xdc;" horiz-adv-x="732" 
d="M574 714h66v-462c0 -165 -97 -265 -274 -265s-274 100 -274 265v462h66v-463c0 -123 72 -204 208 -204s208 81 208 204v463zM313 817h-69v79h69v-79zM489 817h-69v79h69v-79z" />
    <glyph glyph-name="Yacute" unicode="&#xdd;" horiz-adv-x="628" 
d="M300 373h28l206 341h73l-260 -434v-280h-66v280l-260 434h73zM443 896l-105 -129h-56l83 129h78z" />
    <glyph glyph-name="Thorn" unicode="&#xde;" horiz-adv-x="633" 
d="M160 556h195c145 0 224 -74 224 -199c0 -124 -79 -198 -224 -198h-195v-159h-66v714h66v-158zM160 219h185c124 0 168 54 168 138c0 85 -44 139 -168 139h-185v-277z" />
    <glyph glyph-name="germandbls" unicode="&#xdf;" horiz-adv-x="608" 
d="M432 402v-20c71 -13 131 -77 131 -171c0 -139 -92 -211 -228 -211h-60v56h53c84 0 172 27 172 151c0 95 -64 152 -189 152h-16v56h16c116 0 153 59 153 124c0 80 -52 132 -137 132c-97 0 -147 -59 -147 -162v-509h-63v444h-97v56h97v9c0 133 74 218 210 218
c127 0 200 -79 200 -178c0 -76 -35 -128 -95 -147z" />
    <glyph glyph-name="agrave" unicode="&#xe0;" horiz-adv-x="546" 
d="M408 0v56h-20c-31 -40 -89 -69 -162 -69c-118 0 -181 77 -181 161c0 79 49 164 187 164h174v31c0 64 -38 114 -135 114c-83 0 -126 -33 -130 -86h-63c8 91 84 142 193 142c121 0 198 -62 198 -166v-347h-61zM235 43c93 0 171 65 171 157v59h-157
c-92 0 -141 -42 -141 -106c0 -71 51 -110 127 -110zM265 582l-105 145h78l83 -145h-56z" />
    <glyph glyph-name="aacute" unicode="&#xe1;" horiz-adv-x="546" 
d="M408 0v56h-20c-31 -40 -89 -69 -162 -69c-118 0 -181 77 -181 161c0 79 49 164 187 164h174v31c0 64 -38 114 -135 114c-83 0 -126 -33 -130 -86h-63c8 91 84 142 193 142c121 0 198 -62 198 -166v-347h-61zM235 43c93 0 171 65 171 157v59h-157
c-92 0 -141 -42 -141 -106c0 -71 51 -110 127 -110zM391 727l-105 -145h-56l83 145h78z" />
    <glyph glyph-name="acircumflex" unicode="&#xe2;" horiz-adv-x="546" 
d="M408 0v56h-20c-31 -40 -89 -69 -162 -69c-118 0 -181 77 -181 161c0 79 49 164 187 164h174v31c0 64 -38 114 -135 114c-83 0 -126 -33 -130 -86h-63c8 91 84 142 193 142c121 0 198 -62 198 -166v-347h-61zM235 43c93 0 171 65 171 157v59h-157
c-92 0 -141 -42 -141 -106c0 -71 51 -110 127 -110zM312 727l105 -145h-63l-68 95h-20l-68 -95h-61l105 145h70z" />
    <glyph glyph-name="atilde" unicode="&#xe3;" horiz-adv-x="546" 
d="M408 0v56h-20c-31 -40 -89 -69 -162 -69c-118 0 -181 77 -181 161c0 79 49 164 187 164h174v31c0 64 -38 114 -135 114c-83 0 -126 -33 -130 -86h-63c8 91 84 142 193 142c121 0 198 -62 198 -166v-347h-61zM235 43c93 0 171 65 171 157v59h-157
c-92 0 -141 -42 -141 -106c0 -71 51 -110 127 -110zM390 718h47c0 -92 -34 -129 -90 -129c-66 0 -109 80 -149 80c-33 0 -39 -40 -39 -80h-47c0 92 34 129 90 129c66 0 109 -80 149 -80c33 0 39 39 39 80z" />
    <glyph glyph-name="adieresis" unicode="&#xe4;" horiz-adv-x="546" 
d="M408 0v56h-20c-31 -40 -89 -69 -162 -69c-118 0 -181 77 -181 161c0 79 49 164 187 164h174v31c0 64 -38 114 -135 114c-83 0 -126 -33 -130 -86h-63c8 91 84 142 193 142c121 0 198 -62 198 -166v-347h-61zM235 43c93 0 171 65 171 157v59h-157
c-92 0 -141 -42 -141 -106c0 -71 51 -110 127 -110zM220 648h-69v79h69v-79zM396 648h-69v79h69v-79z" />
    <glyph glyph-name="aring" unicode="&#xe5;" horiz-adv-x="546" 
d="M408 0v56h-20c-31 -40 -89 -69 -162 -69c-118 0 -181 77 -181 161c0 79 49 164 187 164h174v31c0 64 -38 114 -135 114c-83 0 -126 -33 -130 -86h-63c8 91 84 142 193 142c121 0 198 -62 198 -166v-347h-61zM235 43c93 0 171 65 171 157v59h-157
c-92 0 -141 -42 -141 -106c0 -71 51 -110 127 -110zM273 793c58 0 105 -47 105 -105s-47 -106 -105 -106s-106 48 -106 106s48 105 106 105zM273 628c35 0 60 25 60 60s-25 60 -60 60s-60 -25 -60 -60s25 -60 60 -60z" />
    <glyph glyph-name="ae" unicode="&#xe6;" horiz-adv-x="894" 
d="M841 259h-381v-10c0 -123 67 -206 171 -206c77 0 123 33 140 89h63c-16 -80 -83 -145 -203 -145c-88 0 -150 40 -189 101h-21c-32 -51 -99 -101 -195 -101c-119 0 -181 77 -181 161c0 79 50 164 185 164h168v30c0 64 -39 115 -136 115c-84 0 -124 -33 -129 -86h-63
c8 91 84 142 193 142c80 0 140 -29 171 -78h21c39 48 98 78 174 78c142 0 212 -114 212 -232v-22zM398 259h-152c-91 0 -138 -43 -138 -106c0 -69 51 -110 127 -110c92 0 163 65 163 157v59zM627 457c-100 0 -150 -71 -163 -145h312c-5 75 -57 145 -149 145z" />
    <glyph glyph-name="ccedilla" unicode="&#xe7;" horiz-adv-x="541" 
d="M432 143h63c-20 -92 -90 -156 -203 -156h-3l-20 -50h13c7 4 16 8 29 8c35 0 64 -31 64 -75c0 -38 -26 -80 -87 -80c-51 0 -80 31 -83 64h47c5 -15 17 -23 36 -23c23 0 38 14 38 39c0 23 -15 38 -36 38c-13 0 -24 -4 -31 -11h-47l37 94c-128 19 -196 128 -196 259
c0 147 84 263 239 263c116 0 182 -64 201 -152h-63c-19 57 -61 96 -138 96c-125 0 -176 -96 -176 -205c0 -108 52 -209 176 -209c80 0 125 40 140 100z" />
    <glyph glyph-name="egrave" unicode="&#xe8;" horiz-adv-x="558" 
d="M505 281v-20h-389v-14c0 -124 69 -204 175 -204c77 0 125 34 141 89h63c-16 -80 -83 -145 -204 -145c-155 0 -238 120 -238 269c0 152 88 257 237 257c145 0 215 -114 215 -232zM288 457c-102 0 -157 -69 -168 -140h320c-5 71 -56 140 -152 140zM280 582l-105 145h78
l83 -145h-56z" />
    <glyph glyph-name="eacute" unicode="&#xe9;" horiz-adv-x="558" 
d="M505 281v-20h-389v-14c0 -124 69 -204 175 -204c77 0 125 34 141 89h63c-16 -80 -83 -145 -204 -145c-155 0 -238 120 -238 269c0 152 88 257 237 257c145 0 215 -114 215 -232zM288 457c-102 0 -157 -69 -168 -140h320c-5 71 -56 140 -152 140zM411 727l-105 -145h-56
l83 145h78z" />
    <glyph glyph-name="ecircumflex" unicode="&#xea;" horiz-adv-x="558" 
d="M505 281v-20h-389v-14c0 -124 69 -204 175 -204c77 0 125 34 141 89h63c-16 -80 -83 -145 -204 -145c-155 0 -238 120 -238 269c0 152 88 257 237 257c145 0 215 -114 215 -232zM288 457c-102 0 -157 -69 -168 -140h320c-5 71 -56 140 -152 140zM327 727l105 -145h-63
l-68 95h-20l-68 -95h-61l105 145h70z" />
    <glyph glyph-name="edieresis" unicode="&#xeb;" horiz-adv-x="558" 
d="M505 281v-20h-389v-14c0 -124 69 -204 175 -204c77 0 125 34 141 89h63c-16 -80 -83 -145 -204 -145c-155 0 -238 120 -238 269c0 152 88 257 237 257c145 0 215 -114 215 -232zM288 457c-102 0 -157 -69 -168 -140h320c-5 71 -56 140 -152 140zM235 648h-69v79h69v-79z
M411 648h-69v79h69v-79z" />
    <glyph glyph-name="igrave" unicode="&#xec;" horiz-adv-x="239" 
d="M151 500v-500h-63v500h63zM92 582l-105 145h78l83 -145h-56z" />
    <glyph glyph-name="iacute" unicode="&#xed;" horiz-adv-x="239" 
d="M151 500v-500h-63v500h63zM255 727l-105 -145h-56l83 145h78z" />
    <glyph glyph-name="icircumflex" unicode="&#xee;" horiz-adv-x="239" 
d="M151 500v-500h-63v500h63zM155 727l105 -145h-63l-68 95h-20l-68 -95h-61l105 145h70z" />
    <glyph glyph-name="idieresis" unicode="&#xef;" horiz-adv-x="239" 
d="M151 500v-500h-63v500h63zM67 648h-69v79h69v-79zM243 648h-69v79h69v-79z" />
    <glyph glyph-name="eth" unicode="&#xf0;" horiz-adv-x="582" 
d="M144 554v48h175c-44 49 -99 92 -147 125h79c43 -31 93 -70 140 -125h112v-48h-74c57 -72 100 -176 100 -299c0 -149 -76 -268 -240 -268c-148 0 -236 112 -236 243s89 242 234 242c53 0 101 -18 130 -47h23c-17 47 -46 93 -79 129h-217zM291 43c124 0 176 88 176 186
s-52 187 -176 187s-177 -89 -177 -187s53 -186 177 -186z" />
    <glyph glyph-name="ntilde" unicode="&#xf1;" horiz-adv-x="592" 
d="M515 0h-63v307c0 100 -46 150 -139 150c-99 0 -165 -86 -165 -183v-274h-63v500h61v-56h20c27 39 87 69 156 69c121 0 193 -74 193 -191v-322zM423 718h47c0 -92 -34 -129 -90 -129c-66 0 -109 80 -149 80c-33 0 -39 -40 -39 -80h-47c0 92 34 129 90 129
c66 0 109 -80 149 -80c33 0 39 39 39 80z" />
    <glyph glyph-name="ograve" unicode="&#xf2;" horiz-adv-x="588" 
d="M294 513c155 0 241 -118 241 -263s-86 -263 -241 -263c-156 0 -241 118 -241 263s85 263 241 263zM294 43c120 0 178 102 178 207s-58 207 -178 207c-123 0 -178 -102 -178 -207s55 -207 178 -207zM276 582l-105 145h78l83 -145h-56z" />
    <glyph glyph-name="oacute" unicode="&#xf3;" horiz-adv-x="588" 
d="M294 513c155 0 241 -118 241 -263s-86 -263 -241 -263c-156 0 -241 118 -241 263s85 263 241 263zM294 43c120 0 178 102 178 207s-58 207 -178 207c-123 0 -178 -102 -178 -207s55 -207 178 -207zM427 727l-105 -145h-56l83 145h78z" />
    <glyph glyph-name="ocircumflex" unicode="&#xf4;" horiz-adv-x="588" 
d="M294 513c155 0 241 -118 241 -263s-86 -263 -241 -263c-156 0 -241 118 -241 263s85 263 241 263zM294 43c120 0 178 102 178 207s-58 207 -178 207c-123 0 -178 -102 -178 -207s55 -207 178 -207zM329 727l105 -145h-63l-68 95h-20l-68 -95h-61l105 145h70z" />
    <glyph glyph-name="otilde" unicode="&#xf5;" horiz-adv-x="588" 
d="M294 513c155 0 241 -118 241 -263s-86 -263 -241 -263c-156 0 -241 118 -241 263s85 263 241 263zM294 43c120 0 178 102 178 207s-58 207 -178 207c-123 0 -178 -102 -178 -207s55 -207 178 -207zM409 718h47c0 -92 -34 -129 -90 -129c-66 0 -109 80 -149 80
c-33 0 -39 -40 -39 -80h-47c0 92 34 129 90 129c66 0 109 -80 149 -80c33 0 39 39 39 80z" />
    <glyph glyph-name="odieresis" unicode="&#xf6;" horiz-adv-x="588" 
d="M294 513c155 0 241 -118 241 -263s-86 -263 -241 -263c-156 0 -241 118 -241 263s85 263 241 263zM294 43c120 0 178 102 178 207s-58 207 -178 207c-123 0 -178 -102 -178 -207s55 -207 178 -207zM241 648h-69v79h69v-79zM417 648h-69v79h69v-79z" />
    <glyph glyph-name="divide" unicode="&#xf7;" horiz-adv-x="683" 
d="M593 255h-503v54h503v-54zM379 433h-76v101h76v-101zM379 30h-76v101h76v-101z" />
    <glyph glyph-name="oslash" unicode="&#xf8;" horiz-adv-x="590" 
d="M295 513c60 0 110 -18 149 -49l30 36h63l-59 -70c39 -47 58 -111 58 -180c0 -145 -86 -263 -241 -263c-61 0 -110 17 -149 48l-30 -35h-63l58 69c-39 47 -57 110 -57 181c0 145 85 263 241 263zM117 250c0 -48 11 -95 35 -132l253 300c-28 24 -63 39 -110 39
c-123 0 -178 -102 -178 -207zM295 43c120 0 178 102 178 207c0 47 -12 94 -36 131l-253 -300c29 -25 66 -38 111 -38z" />
    <glyph glyph-name="ugrave" unicode="&#xf9;" horiz-adv-x="592" 
d="M77 500h63v-307c0 -100 46 -150 139 -150c98 0 165 86 165 183v274h63v-500h-61v56h-20c-27 -39 -87 -69 -156 -69c-121 0 -193 74 -193 191v322zM285 582l-105 145h78l83 -145h-56z" />
    <glyph glyph-name="uacute" unicode="&#xfa;" horiz-adv-x="592" 
d="M77 500h63v-307c0 -100 46 -150 139 -150c98 0 165 86 165 183v274h63v-500h-61v56h-20c-27 -39 -87 -69 -156 -69c-121 0 -193 74 -193 191v322zM406 727l-105 -145h-56l83 145h78z" />
    <glyph glyph-name="ucircumflex" unicode="&#xfb;" horiz-adv-x="592" 
d="M77 500h63v-307c0 -100 46 -150 139 -150c98 0 165 86 165 183v274h63v-500h-61v56h-20c-27 -39 -87 -69 -156 -69c-121 0 -193 74 -193 191v322zM324 727l105 -145h-63l-68 95h-20l-68 -95h-61l105 145h70z" />
    <glyph glyph-name="udieresis" unicode="&#xfc;" horiz-adv-x="592" 
d="M77 500h63v-307c0 -100 46 -150 139 -150c98 0 165 86 165 183v274h63v-500h-61v56h-20c-27 -39 -87 -69 -156 -69c-121 0 -193 74 -193 191v322zM236 648h-69v79h69v-79zM412 648h-69v79h69v-79z" />
    <glyph glyph-name="yacute" unicode="&#xfd;" horiz-adv-x="516" 
d="M197 -200h-64l103 247l-212 453h68l165 -353h24l149 353h66zM399 727l-105 -145h-56l83 145h78z" />
    <glyph glyph-name="thorn" unicode="&#xfe;" horiz-adv-x="605" 
d="M329 -13c-83 0 -133 33 -161 69h-20v-256h-63v927h63v-283h20c27 35 77 69 161 69c140 0 223 -115 223 -263c0 -149 -83 -263 -223 -263zM321 457c-122 0 -173 -102 -173 -207c0 -106 51 -207 173 -207c109 0 168 84 168 207s-59 207 -168 207z" />
    <glyph glyph-name="ydieresis" unicode="&#xff;" horiz-adv-x="516" 
d="M197 -200h-64l103 247l-212 453h68l165 -353h24l149 353h66zM207 648h-69v79h69v-79zM383 648h-69v79h69v-79z" />
    <glyph glyph-name="Amacron" unicode="&#x100;" horiz-adv-x="673" 
d="M396 714l256 -714h-71l-81 231h-329l-81 -231h-69l255 714h120zM316 644l-124 -353h287l-124 353h-39zM473 817h-274v54h274v-54z" />
    <glyph glyph-name="amacron" unicode="&#x101;" horiz-adv-x="546" 
d="M408 0v56h-20c-31 -40 -89 -69 -162 -69c-118 0 -181 77 -181 161c0 79 49 164 187 164h174v31c0 64 -38 114 -135 114c-83 0 -126 -33 -130 -86h-63c8 91 84 142 193 142c121 0 198 -62 198 -166v-347h-61zM235 43c93 0 171 65 171 157v59h-157
c-92 0 -141 -42 -141 -106c0 -71 51 -110 127 -110zM412 648h-274v54h274v-54z" />
    <glyph glyph-name="Abreve" unicode="&#x102;" horiz-adv-x="673" 
d="M396 714l256 -714h-71l-81 231h-329l-81 -231h-69l255 714h120zM316 644l-124 -353h287l-124 353h-39zM421 896h52v-12c0 -76 -62 -117 -136 -117s-136 41 -136 117v12h52v-11c0 -44 36 -70 84 -70s84 26 84 70v11z" />
    <glyph glyph-name="abreve" unicode="&#x103;" horiz-adv-x="546" 
d="M408 0v56h-20c-31 -40 -89 -69 -162 -69c-118 0 -181 77 -181 161c0 79 49 164 187 164h174v31c0 64 -38 114 -135 114c-83 0 -126 -33 -130 -86h-63c8 91 84 142 193 142c121 0 198 -62 198 -166v-347h-61zM235 43c93 0 171 65 171 157v59h-157
c-92 0 -141 -42 -141 -106c0 -71 51 -110 127 -110zM360 727h52v-14c0 -84 -62 -131 -136 -131s-136 47 -136 131v14h52v-14c0 -51 36 -83 84 -83s84 32 84 83v14z" />
    <glyph glyph-name="Aogonek" unicode="&#x104;" horiz-adv-x="673" 
d="M396 714l256 -714c-41 -21 -77 -57 -77 -96c0 -37 31 -56 79 -57v-47h-17c-71 0 -120 30 -120 95c0 44 32 86 64 105l-81 231h-329l-81 -231h-69l255 714h120zM316 644l-124 -353h287l-124 353h-39z" />
    <glyph glyph-name="aogonek" unicode="&#x105;" horiz-adv-x="546" 
d="M469 347v-347c-41 -21 -77 -57 -77 -96c0 -37 31 -56 79 -57v-47h-17c-71 0 -120 30 -120 95c0 45 38 91 74 107v54h-20c-31 -40 -89 -69 -162 -69c-118 0 -181 77 -181 161c0 79 49 164 187 164h174v31c0 64 -38 114 -135 114c-83 0 -126 -33 -130 -86h-63
c8 91 84 142 193 142c121 0 198 -62 198 -166zM235 43c93 0 171 65 171 157v59h-157c-92 0 -141 -42 -141 -106c0 -71 51 -110 127 -110z" />
    <glyph glyph-name="Cacute" unicode="&#x106;" horiz-adv-x="710" 
d="M588 193h71c-30 -121 -125 -206 -276 -206c-210 0 -326 161 -326 370s116 370 327 370c139 0 238 -72 267 -192h-70c-31 84 -88 132 -197 132c-182 0 -261 -151 -261 -310c0 -160 78 -310 260 -310c109 0 178 58 205 146zM500 896l-105 -129h-56l83 129h78z" />
    <glyph glyph-name="cacute" unicode="&#x107;" horiz-adv-x="541" 
d="M432 143h63c-20 -92 -90 -156 -203 -156c-155 0 -239 118 -239 263c0 147 84 263 239 263c116 0 182 -64 201 -152h-63c-19 57 -61 96 -138 96c-125 0 -176 -96 -176 -205c0 -108 52 -209 176 -209c80 0 125 40 140 100zM403 727l-105 -145h-56l83 145h78z" />
    <glyph glyph-name="Ccaron" unicode="&#x10c;" horiz-adv-x="710" 
d="M588 193h71c-30 -121 -125 -206 -276 -206c-210 0 -326 161 -326 370s116 370 327 370c139 0 238 -72 267 -192h-70c-31 84 -88 132 -197 132c-182 0 -261 -151 -261 -310c0 -160 78 -310 260 -310c109 0 178 58 205 146zM336 767l-105 129h66l65 -79h20l65 79h64
l-105 -129h-70z" />
    <glyph glyph-name="ccaron" unicode="&#x10d;" horiz-adv-x="541" 
d="M432 143h63c-20 -92 -90 -156 -203 -156c-155 0 -239 118 -239 263c0 147 84 263 239 263c116 0 182 -64 201 -152h-63c-19 57 -61 96 -138 96c-125 0 -176 -96 -176 -205c0 -108 52 -209 176 -209c80 0 125 40 140 100zM254 582l-105 145h63l68 -95h20l68 95h61
l-105 -145h-70z" />
    <glyph glyph-name="Dcaron" unicode="&#x10e;" horiz-adv-x="735" 
d="M94 714h255c219 0 329 -142 329 -357c0 -214 -110 -357 -329 -357h-255v714zM160 60h196c186 0 256 137 256 297s-70 297 -256 297h-196v-594zM297 767l-105 129h66l65 -79h20l65 79h64l-105 -129h-70z" />
    <glyph glyph-name="dcaron" unicode="&#x10f;" horiz-adv-x="670" 
d="M657 635h-41v92h84v-109l-44 -67h-43l44 67v17zM278 513c83 0 132 -33 160 -69h20v283h63v-727h-61v56h-20c-28 -35 -79 -69 -162 -69c-140 0 -223 115 -223 263c0 149 83 263 223 263zM286 43c123 0 172 102 172 207c0 106 -49 207 -172 207c-109 0 -168 -84 -168 -207
s59 -207 168 -207z" />
    <glyph glyph-name="Dcroat" unicode="&#x110;" horiz-adv-x="759" 
d="M20 344v56h98v314h255c219 0 329 -142 329 -357c0 -214 -110 -357 -329 -357h-255v344h-98zM184 60h196c186 0 256 137 256 297s-70 297 -256 297h-196v-254h234v-56h-234v-284z" />
    <glyph glyph-name="dslash" unicode="&#x111;" horiz-adv-x="613" 
d="M276 513c83 0 132 -33 160 -69h20v142h-160v50h160v91h63v-91h84v-50h-84v-586h-61v56h-20c-28 -35 -79 -69 -162 -69c-140 0 -223 115 -223 263c0 149 83 263 223 263zM284 43c123 0 172 102 172 207c0 106 -49 207 -172 207c-109 0 -168 -84 -168 -207
s59 -207 168 -207z" />
    <glyph glyph-name="Emacron" unicode="&#x112;" horiz-adv-x="646" 
d="M160 60h436v-60h-502v714h485v-60h-419v-252h341v-60h-341v-282zM482 817h-274v54h274v-54z" />
    <glyph glyph-name="emacron" unicode="&#x113;" horiz-adv-x="558" 
d="M505 281v-20h-389v-14c0 -124 69 -204 175 -204c77 0 125 34 141 89h63c-16 -80 -83 -145 -204 -145c-155 0 -238 120 -238 269c0 152 88 257 237 257c145 0 215 -114 215 -232zM288 457c-102 0 -157 -69 -168 -140h320c-5 71 -56 140 -152 140zM429 648h-274v54h274v-54
z" />
    <glyph glyph-name="Edotaccent" unicode="&#x116;" horiz-adv-x="646" 
d="M160 60h436v-60h-502v714h485v-60h-419v-252h341v-60h-341v-282zM380 817h-69v79h69v-79z" />
    <glyph glyph-name="edotaccent" unicode="&#x117;" horiz-adv-x="558" 
d="M505 281v-20h-389v-14c0 -124 69 -204 175 -204c77 0 125 34 141 89h63c-16 -80 -83 -145 -204 -145c-155 0 -238 120 -238 269c0 152 88 257 237 257c145 0 215 -114 215 -232zM288 457c-102 0 -157 -69 -168 -140h320c-5 71 -56 140 -152 140zM325 648h-69v79h69v-79z
" />
    <glyph glyph-name="Eogonek" unicode="&#x118;" horiz-adv-x="646" 
d="M160 60h436v-60c-41 -21 -77 -57 -77 -96c0 -37 31 -56 79 -57v-47h-17c-71 0 -120 30 -120 95c0 44 34 86 69 105h-436v714h485v-60h-419v-252h341v-60h-341v-282z" />
    <glyph glyph-name="eogonek" unicode="&#x119;" horiz-adv-x="558" 
d="M505 281v-20h-389v-14c0 -124 69 -204 175 -204c77 0 125 34 141 89h63c-11 -60 -43 -99 -114 -131c-45 -21 -80 -58 -80 -97c0 -37 31 -56 79 -57v-47h-17c-71 0 -120 30 -120 95c0 36 23 71 50 92c-157 0 -240 120 -240 269c0 152 88 257 237 257
c145 0 215 -114 215 -232zM288 457c-102 0 -157 -69 -168 -140h320c-5 71 -56 140 -152 140z" />
    <glyph glyph-name="Ecaron" unicode="&#x11a;" horiz-adv-x="646" 
d="M160 60h436v-60h-502v714h485v-60h-419v-252h341v-60h-341v-282zM310 767l-105 129h66l65 -79h20l65 79h64l-105 -129h-70z" />
    <glyph glyph-name="ecaron" unicode="&#x11b;" horiz-adv-x="558" 
d="M505 281v-20h-389v-14c0 -124 69 -204 175 -204c77 0 125 34 141 89h63c-16 -80 -83 -145 -204 -145c-155 0 -238 120 -238 269c0 152 88 257 237 257c145 0 215 -114 215 -232zM288 457c-102 0 -157 -69 -168 -140h320c-5 71 -56 140 -152 140zM244 582l-105 145h63
l68 -95h20l68 95h61l-105 -145h-70z" />
    <glyph glyph-name="uni0122" unicode="&#x122;" horiz-adv-x="737" 
d="M367 310v60h310v-65c0 -164 -81 -318 -294 -318s-326 166 -326 370c0 208 116 370 328 370c143 0 241 -72 269 -192h-69c-25 80 -85 132 -200 132c-184 0 -262 -150 -262 -310c0 -158 75 -310 260 -310c155 0 226 105 226 238v25h-242zM385 -215h-44l49 60v17h-41v79h84
v-96z" />
    <glyph glyph-name="uni0123" unicode="&#x123;" horiz-adv-x="605" 
d="M459 500h61v-475c0 -140 -82 -231 -226 -231c-125 0 -203 54 -220 147h62c16 -68 76 -91 157 -91c112 0 164 64 164 175v44h-20c-29 -36 -80 -69 -159 -69c-139 0 -224 110 -224 256c0 147 85 257 224 257c81 0 132 -34 161 -69h20v56zM285 56c120 0 172 96 172 200
s-52 201 -172 201c-107 0 -168 -80 -168 -201c0 -120 62 -200 168 -200zM307 727h44l-49 -60v-17h41v-79h-84v96z" />
    <glyph glyph-name="Itilde" unicode="&#x128;" horiz-adv-x="268" 
d="M101 714h66v-714h-66v714zM251 896h47c0 -92 -34 -129 -90 -129c-66 0 -109 80 -149 80c-33 0 -39 -40 -39 -80h-47c0 92 34 129 90 129c66 0 109 -80 149 -80c33 0 39 39 39 80z" />
    <glyph glyph-name="itilde" unicode="&#x129;" horiz-adv-x="239" 
d="M151 500v-500h-63v500h63zM236 718h47c0 -92 -34 -129 -90 -129c-66 0 -109 80 -149 80c-33 0 -39 -40 -39 -80h-47c0 92 34 129 90 129c66 0 109 -80 149 -80c33 0 39 39 39 80z" />
    <glyph glyph-name="Imacron" unicode="&#x12a;" horiz-adv-x="268" 
d="M101 714h66v-714h-66v714zM272 817h-274v54h274v-54z" />
    <glyph glyph-name="imacron" unicode="&#x12b;" horiz-adv-x="239" 
d="M151 500v-500h-63v500h63zM257 648h-274v54h274v-54z" />
    <glyph glyph-name="Iogonek" unicode="&#x12e;" horiz-adv-x="268" 
d="M101 714h66v-714c-41 -21 -77 -57 -77 -96c0 -37 31 -56 79 -57v-47h-17c-71 0 -120 30 -120 95c0 44 34 86 69 105v714z" />
    <glyph glyph-name="iogonek" unicode="&#x12f;" horiz-adv-x="239" 
d="M151 500v-500c-41 -21 -77 -57 -77 -96c0 -37 31 -56 79 -57v-47h-17c-71 0 -120 30 -120 95c0 45 37 87 72 106v499h63zM154 648h-69v79h69v-79z" />
    <glyph glyph-name="dotlessi" unicode="&#x131;" horiz-adv-x="239" 
d="M151 500v-500h-63v500h63z" />
    <glyph glyph-name="uni0136" unicode="&#x136;" horiz-adv-x="715" 
d="M94 0v714h66v-378l398 378h84l-229 -225l255 -489h-72l-227 432h-20l-189 -178v-254h-66zM367 -215h-44l49 60v17h-41v79h84v-96z" />
    <glyph glyph-name="uni0137" unicode="&#x137;" horiz-adv-x="534" 
d="M521 0h-69l-154 287h-20l-130 -142v-145h-63v727h63v-501l257 274h79l-145 -154zM291 -215h-44l49 60v17h-41v79h84v-96z" />
    <glyph glyph-name="kgreenlandic" unicode="&#x138;" horiz-adv-x="534" 
d="M521 0h-69l-154 287h-20l-130 -142v-145h-63v501h63v-275l257 274h79l-145 -154z" />
    <glyph glyph-name="Lacute" unicode="&#x139;" horiz-adv-x="611" 
d="M160 62h411v-62h-477v714h66v-652zM261 896l-105 -129h-56l83 129h78z" />
    <glyph glyph-name="lacute" unicode="&#x13a;" horiz-adv-x="233" 
d="M148 727v-727h-63v727h63zM252 896l-105 -129h-56l83 129h78z" />
    <glyph glyph-name="uni013B" unicode="&#x13b;" horiz-adv-x="611" 
d="M160 62h411v-62h-477v714h66v-652zM329 -215h-44l49 60v17h-41v79h84v-96z" />
    <glyph glyph-name="uni013C" unicode="&#x13c;" horiz-adv-x="233" 
d="M148 727v-727h-63v727h63zM111 -215h-44l49 60v17h-41v79h84v-96z" />
    <glyph glyph-name="Lcaron" unicode="&#x13d;" horiz-adv-x="611" 
d="M404 622h-41v92h84v-109l-44 -67h-43l44 67v17zM160 62h411v-62h-477v714h66v-652z" />
    <glyph glyph-name="lcaron" unicode="&#x13e;" horiz-adv-x="298" 
d="M285 635h-41v92h84v-109l-44 -67h-43l44 67v17zM148 727v-727h-63v727h63z" />
    <glyph glyph-name="Lslash" unicode="&#x141;" horiz-adv-x="626" 
d="M175 62h411v-62h-477v325l-89 -36v63l89 36v326h66v-299l173 70v-63l-173 -70v-290z" />
    <glyph glyph-name="lslash" unicode="&#x142;" horiz-adv-x="323" 
d="M193 356v-356h-63v328l-100 -45v63l100 45v336h63v-308l100 46v-63z" />
    <glyph glyph-name="Nacute" unicode="&#x143;" horiz-adv-x="757" 
d="M597 714h66v-714h-120l-363 644h-20v-644h-66v714h120l363 -644h20v644zM506 896l-105 -129h-56l83 129h78z" />
    <glyph glyph-name="nacute" unicode="&#x144;" horiz-adv-x="592" 
d="M515 0h-63v307c0 100 -46 150 -139 150c-99 0 -165 -86 -165 -183v-274h-63v500h61v-56h20c27 39 87 69 156 69c121 0 193 -74 193 -191v-322zM428 727l-105 -145h-56l83 145h78z" />
    <glyph glyph-name="uni0145" unicode="&#x145;" horiz-adv-x="757" 
d="M597 714h66v-714h-120l-363 644h-20v-644h-66v714h120l363 -644h20v644zM363 -215h-44l49 60v17h-41v79h84v-96z" />
    <glyph glyph-name="uni0146" unicode="&#x146;" horiz-adv-x="592" 
d="M515 0h-63v307c0 100 -46 150 -139 150c-99 0 -165 -86 -165 -183v-274h-63v500h61v-56h20c27 39 87 69 156 69c121 0 193 -74 193 -191v-322zM294 -215h-44l49 60v17h-41v79h84v-96z" />
    <glyph glyph-name="Ncaron" unicode="&#x147;" horiz-adv-x="757" 
d="M597 714h66v-714h-120l-363 644h-20v-644h-66v714h120l363 -644h20v644zM343 767l-105 129h66l65 -79h20l65 79h64l-105 -129h-70z" />
    <glyph glyph-name="ncaron" unicode="&#x148;" horiz-adv-x="592" 
d="M515 0h-63v307c0 100 -46 150 -139 150c-99 0 -165 -86 -165 -183v-274h-63v500h61v-56h20c27 39 87 69 156 69c121 0 193 -74 193 -191v-322zM265 582l-105 145h63l68 -95h20l68 95h61l-105 -145h-70z" />
    <glyph glyph-name="Eng" unicode="&#x14a;" horiz-adv-x="757" 
d="M543 0l-363 644h-20v-644h-66v714h120l363 -644h20v644h66v-678c0 -147 -78 -235 -214 -236h-51v60h51c80 0 135 44 146 140h-52z" />
    <glyph glyph-name="eng" unicode="&#x14b;" horiz-adv-x="592" 
d="M367 -200h-63v56h47c75 0 101 41 101 113v338c0 100 -46 150 -139 150c-99 0 -165 -86 -165 -183v-274h-63v500h61v-56h20c27 39 87 69 156 69c121 0 193 -74 193 -191v-354c0 -100 -48 -168 -148 -168z" />
    <glyph glyph-name="Omacron" unicode="&#x14c;" horiz-adv-x="768" 
d="M384 727c213 0 327 -166 327 -370s-114 -370 -327 -370c-214 0 -327 166 -327 370s113 370 327 370zM384 47c184 0 261 154 261 310s-77 310 -261 310s-261 -154 -261 -310s77 -310 261 -310zM521 817h-274v54h274v-54z" />
    <glyph glyph-name="omacron" unicode="&#x14d;" horiz-adv-x="588" 
d="M294 513c155 0 241 -118 241 -263s-86 -263 -241 -263c-156 0 -241 118 -241 263s85 263 241 263zM294 43c120 0 178 102 178 207s-58 207 -178 207c-123 0 -178 -102 -178 -207s55 -207 178 -207zM431 648h-274v54h274v-54z" />
    <glyph glyph-name="Ohungarumlaut" unicode="&#x150;" horiz-adv-x="768" 
d="M384 727c213 0 327 -166 327 -370s-114 -370 -327 -370c-214 0 -327 166 -327 370s113 370 327 370zM384 47c184 0 261 154 261 310s-77 310 -261 310s-261 -154 -261 -310s77 -310 261 -310zM424 896l-99 -129h-56l77 129h78zM568 896l-99 -129h-56l77 129h78z" />
    <glyph glyph-name="ohungarumlaut" unicode="&#x151;" horiz-adv-x="588" 
d="M294 513c155 0 241 -118 241 -263s-86 -263 -241 -263c-156 0 -241 118 -241 263s85 263 241 263zM294 43c120 0 178 102 178 207s-58 207 -178 207c-123 0 -178 -102 -178 -207s55 -207 178 -207zM328 727l-99 -145h-56l77 145h78zM472 727l-99 -145h-56l77 145h78z" />
    <glyph glyph-name="OE" unicode="&#x152;" horiz-adv-x="1083" 
d="M647 60h386v-60h-452v53h-20c-44 -47 -113 -66 -177 -66c-214 0 -327 166 -327 370s113 370 327 370c64 0 133 -18 177 -65h20v52h435v-60h-369v-252h291v-60h-291v-282zM382 47c111 0 175 58 199 120v381c-24 61 -90 119 -199 119c-184 0 -259 -154 -259 -310
s75 -310 259 -310z" />
    <glyph glyph-name="oe" unicode="&#x153;" horiz-adv-x="962" 
d="M909 261h-381v-12c0 -123 66 -206 170 -206c77 0 124 34 141 89h63c-16 -80 -85 -145 -204 -145c-88 0 -152 41 -191 105h-21c-39 -64 -105 -105 -196 -105c-153 0 -237 118 -237 263s84 263 237 263c88 0 153 -39 193 -100h23c39 63 104 100 192 100
c141 0 211 -114 211 -232v-20zM290 43c119 0 175 102 175 207s-56 207 -175 207s-174 -102 -174 -207s55 -207 174 -207zM696 457c-100 0 -152 -69 -165 -140h313c-5 71 -55 140 -148 140z" />
    <glyph glyph-name="Racute" unicode="&#x154;" horiz-adv-x="702" 
d="M94 714h308c148 0 229 -75 229 -202c0 -87 -39 -149 -111 -180l117 -332h-69l-112 315c-15 -3 -33 -4 -54 -4h-242v-311h-66v714zM160 371h232c127 0 173 54 173 141s-45 142 -173 142h-232v-283zM440 896l-105 -129h-56l83 129h78z" />
    <glyph glyph-name="racute" unicode="&#x155;" horiz-adv-x="379" 
d="M349 500v-58h-38c-96 0 -163 -63 -163 -178v-264h-63v500h61v-61h20c29 35 81 61 149 61h34zM318 727l-105 -145h-56l83 145h78z" />
    <glyph glyph-name="uni0156" unicode="&#x156;" horiz-adv-x="702" 
d="M94 714h308c148 0 229 -75 229 -202c0 -87 -39 -149 -111 -180l117 -332h-69l-112 315c-15 -3 -33 -4 -54 -4h-242v-311h-66v714zM160 371h232c127 0 173 54 173 141s-45 142 -173 142h-232v-283zM342 -215h-44l49 60v17h-41v79h84v-96z" />
    <glyph glyph-name="uni0157" unicode="&#x157;" horiz-adv-x="379" 
d="M349 500v-58h-38c-96 0 -163 -63 -163 -178v-264h-63v500h61v-61h20c29 35 81 61 149 61h34zM114 -215h-44l49 60v17h-41v79h84v-96z" />
    <glyph glyph-name="Rcaron" unicode="&#x158;" horiz-adv-x="702" 
d="M94 714h308c148 0 229 -75 229 -202c0 -87 -39 -149 -111 -180l117 -332h-69l-112 315c-15 -3 -33 -4 -54 -4h-242v-311h-66v714zM160 371h232c127 0 173 54 173 141s-45 142 -173 142h-232v-283zM308 767l-105 129h66l65 -79h20l65 79h64l-105 -129h-70z" />
    <glyph glyph-name="rcaron" unicode="&#x159;" horiz-adv-x="379" 
d="M349 500v-58h-38c-96 0 -163 -63 -163 -178v-264h-63v500h61v-61h20c29 35 81 61 149 61h34zM176 582l-105 145h63l68 -95h20l68 95h61l-105 -145h-70z" />
    <glyph glyph-name="Sacute" unicode="&#x15a;" horiz-adv-x="653" 
d="M273 420l134 -28c104 -21 186 -74 186 -198c0 -109 -88 -207 -264 -207c-161 0 -262 80 -281 204h69c21 -103 109 -144 215 -144c108 0 195 55 195 147c0 84 -55 119 -139 137l-139 29c-100 22 -167 73 -167 176c0 107 86 191 242 191c144 0 235 -77 251 -186h-67
c-19 77 -70 126 -186 126c-95 0 -174 -46 -174 -131c0 -71 48 -100 125 -116zM437 896l-105 -129h-56l83 129h78z" />
    <glyph glyph-name="sacute" unicode="&#x15b;" horiz-adv-x="501" 
d="M258 -13c-137 0 -204 60 -217 152h62c12 -63 65 -96 149 -96c87 0 142 32 142 96c0 49 -27 79 -99 90c-22 3 -85 13 -119 21c-67 13 -115 49 -115 120c0 81 64 143 192 143c113 0 180 -55 191 -139h-62c-7 55 -64 83 -133 83c-79 0 -125 -30 -125 -81
c0 -44 28 -64 85 -75c17 -3 34 -5 49 -8l62 -10c83 -15 137 -57 137 -142c0 -80 -71 -154 -199 -154zM365 727l-105 -145h-56l83 145h78z" />
    <glyph glyph-name="Scedilla" unicode="&#x15e;" horiz-adv-x="653" 
d="M273 420l134 -28c104 -21 186 -74 186 -198c0 -109 -88 -207 -264 -207h-4l-20 -50h13c7 4 16 8 29 8c35 0 64 -31 64 -75c0 -38 -26 -80 -87 -80c-51 0 -80 31 -83 64h47c5 -15 17 -23 36 -23c23 0 38 14 38 39c0 23 -15 38 -36 38c-13 0 -24 -4 -31 -11h-47l36 93
c-136 13 -220 88 -236 201h69c21 -103 109 -144 215 -144c108 0 195 55 195 147c0 84 -55 119 -139 137l-139 29c-100 22 -167 73 -167 176c0 107 86 191 242 191c144 0 235 -77 251 -186h-67c-19 77 -70 126 -186 126c-95 0 -174 -46 -174 -131c0 -71 48 -100 125 -116z
" />
    <glyph glyph-name="scedilla" unicode="&#x15f;" horiz-adv-x="501" 
d="M258 -13h-9l-20 -50h13c7 4 16 8 29 8c35 0 64 -31 64 -75c0 -38 -26 -80 -87 -80c-51 0 -80 31 -83 64h47c5 -15 17 -23 36 -23c23 0 38 14 38 39c0 23 -15 38 -36 38c-13 0 -24 -4 -31 -11h-47l37 93c-104 13 -157 69 -168 149h62c12 -63 65 -96 149 -96
c87 0 142 32 142 96c0 49 -27 79 -99 90c-22 3 -85 13 -119 21c-67 13 -115 49 -115 120c0 81 64 143 192 143c113 0 180 -55 191 -139h-62c-7 55 -64 83 -133 83c-79 0 -125 -30 -125 -81c0 -44 28 -64 85 -75c17 -3 34 -5 49 -8l62 -10c83 -15 137 -57 137 -142
c0 -80 -71 -154 -199 -154z" />
    <glyph glyph-name="Scaron" unicode="&#x160;" horiz-adv-x="653" 
d="M273 420l134 -28c104 -21 186 -74 186 -198c0 -109 -88 -207 -264 -207c-161 0 -262 80 -281 204h69c21 -103 109 -144 215 -144c108 0 195 55 195 147c0 84 -55 119 -139 137l-139 29c-100 22 -167 73 -167 176c0 107 86 191 242 191c144 0 235 -77 251 -186h-67
c-19 77 -70 126 -186 126c-95 0 -174 -46 -174 -131c0 -71 48 -100 125 -116zM288 767l-105 129h66l65 -79h20l65 79h64l-105 -129h-70z" />
    <glyph glyph-name="scaron" unicode="&#x161;" horiz-adv-x="501" 
d="M258 -13c-137 0 -204 60 -217 152h62c12 -63 65 -96 149 -96c87 0 142 32 142 96c0 49 -27 79 -99 90c-22 3 -85 13 -119 21c-67 13 -115 49 -115 120c0 81 64 143 192 143c113 0 180 -55 191 -139h-62c-7 55 -64 83 -133 83c-79 0 -125 -30 -125 -81
c0 -44 28 -64 85 -75c17 -3 34 -5 49 -8l62 -10c83 -15 137 -57 137 -142c0 -80 -71 -154 -199 -154zM217 582l-105 145h63l68 -95h20l68 95h61l-105 -145h-70z" />
    <glyph glyph-name="uni0162" unicode="&#x162;" horiz-adv-x="585" 
d="M566 714v-58h-240v-656h-66v656h-241v58h547zM287 -215h-44l49 60v17h-41v79h84v-96z" />
    <glyph glyph-name="uni0163" unicode="&#x163;" horiz-adv-x="375" 
d="M183 500h133v-56h-133v-303c0 -57 24 -85 99 -85h34v-56h-35c-107 0 -161 35 -161 134v310h-92v56h92v155h63v-155zM208 -215h-44l49 60v17h-41v79h84v-96z" />
    <glyph glyph-name="Tcaron" unicode="&#x164;" horiz-adv-x="585" 
d="M566 714v-58h-240v-656h-66v656h-241v58h547zM257 767l-105 129h66l65 -79h20l65 79h64l-105 -129h-70z" />
    <glyph glyph-name="tcaron" unicode="&#x165;" horiz-adv-x="366" 
d="M334 635h-41v92h84v-109l-44 -67h-43l44 67v17zM183 500h133v-56h-133v-303c0 -57 24 -85 99 -85h34v-56h-35c-107 0 -161 35 -161 134v310h-92v56h92v155h63v-155z" />
    <glyph glyph-name="Tbar" unicode="&#x166;" horiz-adv-x="585" 
d="M566 714v-58h-240v-256h167v-56h-167v-344h-66v344h-168v56h168v256h-241v58h547z" />
    <glyph glyph-name="tbar" unicode="&#x167;" horiz-adv-x="366" 
d="M183 500h133v-56h-133v-129h133v-56h-133v-118c0 -57 24 -85 99 -85h34v-56h-35c-107 0 -161 35 -161 134v125h-92v56h92v129h-92v56h92v155h63v-155z" />
    <glyph glyph-name="Utilde" unicode="&#x168;" horiz-adv-x="732" 
d="M574 714h66v-462c0 -165 -97 -265 -274 -265s-274 100 -274 265v462h66v-463c0 -123 72 -204 208 -204s208 81 208 204v463zM482 896h47c0 -92 -34 -129 -90 -129c-66 0 -109 80 -149 80c-33 0 -39 -40 -39 -80h-47c0 92 34 129 90 129c66 0 109 -80 149 -80
c33 0 39 39 39 80z" />
    <glyph glyph-name="utilde" unicode="&#x169;" horiz-adv-x="593" 
d="M78 500h63v-307c0 -100 46 -150 139 -150c98 0 165 86 165 183v274h63v-500h-61v56h-20c-27 -39 -87 -69 -156 -69c-121 0 -193 74 -193 191v322zM408 718h47c0 -92 -34 -129 -90 -129c-66 0 -109 80 -149 80c-33 0 -39 -40 -39 -80h-47c0 92 34 129 90 129
c66 0 109 -80 149 -80c33 0 39 39 39 80z" />
    <glyph glyph-name="Umacron" unicode="&#x16a;" horiz-adv-x="732" 
d="M574 714h66v-462c0 -165 -97 -265 -274 -265s-274 100 -274 265v462h66v-463c0 -123 72 -204 208 -204s208 81 208 204v463zM503 817h-274v54h274v-54z" />
    <glyph glyph-name="umacron" unicode="&#x16b;" horiz-adv-x="593" 
d="M78 500h63v-307c0 -100 46 -150 139 -150c98 0 165 86 165 183v274h63v-500h-61v56h-20c-27 -39 -87 -69 -156 -69c-121 0 -193 74 -193 191v322zM429 648h-274v54h274v-54z" />
    <glyph glyph-name="Uring" unicode="&#x16e;" horiz-adv-x="732" 
d="M574 714h66v-462c0 -165 -97 -265 -274 -265s-274 100 -274 265v462h66v-463c0 -123 72 -204 208 -204s208 81 208 204v463zM367 966c58 0 105 -47 105 -105s-47 -106 -105 -106s-106 48 -106 106s48 105 106 105zM367 801c35 0 60 25 60 60s-25 60 -60 60
s-60 -25 -60 -60s25 -60 60 -60z" />
    <glyph glyph-name="uring" unicode="&#x16f;" horiz-adv-x="593" 
d="M78 500h63v-307c0 -100 46 -150 139 -150c98 0 165 86 165 183v274h63v-500h-61v56h-20c-27 -39 -87 -69 -156 -69c-121 0 -193 74 -193 191v322zM293 793c58 0 105 -47 105 -105s-47 -106 -105 -106s-106 48 -106 106s48 105 106 105zM293 628c35 0 60 25 60 60
s-25 60 -60 60s-60 -25 -60 -60s25 -60 60 -60z" />
    <glyph glyph-name="Uhungarumlaut" unicode="&#x170;" horiz-adv-x="732" 
d="M574 714h66v-462c0 -165 -97 -265 -274 -265s-274 100 -274 265v462h66v-463c0 -123 72 -204 208 -204s208 81 208 204v463zM399 896l-99 -129h-56l77 129h78zM543 896l-99 -129h-56l77 129h78z" />
    <glyph glyph-name="uhungarumlaut" unicode="&#x171;" horiz-adv-x="593" 
d="M78 500h63v-307c0 -100 46 -150 139 -150c98 0 165 86 165 183v274h63v-500h-61v56h-20c-27 -39 -87 -69 -156 -69c-121 0 -193 74 -193 191v322zM323 727l-99 -145h-56l77 145h78zM467 727l-99 -145h-56l77 145h78z" />
    <glyph glyph-name="Uogonek" unicode="&#x172;" horiz-adv-x="732" 
d="M574 714h66v-462c0 -121 -49 -205 -144 -242c-52 -21 -107 -49 -107 -106c0 -37 31 -56 79 -57v-47h-17c-71 0 -120 30 -120 95c0 36 23 71 50 92h-15c-177 0 -274 100 -274 265v462h66v-463c0 -123 72 -204 208 -204s208 81 208 204v463z" />
    <glyph glyph-name="uogonek" unicode="&#x173;" horiz-adv-x="593" 
d="M508 500v-500c-41 -21 -77 -57 -77 -96c0 -37 31 -56 79 -57v-47h-17c-71 0 -120 30 -120 95c0 45 38 91 74 107v54h-20c-27 -39 -87 -69 -156 -69c-121 0 -193 74 -193 191v322h63v-307c0 -100 46 -150 139 -150c98 0 165 86 165 183v274h63z" />
    <glyph glyph-name="Ydieresis" unicode="&#x178;" horiz-adv-x="628" 
d="M300 373h28l206 341h73l-260 -434v-280h-66v280l-260 434h73zM261 817h-69v79h69v-79zM437 817h-69v79h69v-79z" />
    <glyph glyph-name="Zacute" unicode="&#x179;" horiz-adv-x="636" 
d="M572 714v-80l-444 -554v-20h458v-60h-536v81l444 553v20h-418v60h496zM447 896l-105 -129h-56l83 129h78z" />
    <glyph glyph-name="zacute" unicode="&#x17a;" horiz-adv-x="504" 
d="M454 0h-404v76l326 349v19h-309v56h387v-75l-326 -349v-20h326v-56zM386 727l-105 -145h-56l83 145h78z" />
    <glyph glyph-name="Zdotaccent" unicode="&#x17b;" horiz-adv-x="636" 
d="M572 714v-80l-444 -554v-20h458v-60h-536v81l444 553v20h-418v60h496zM353 817h-69v79h69v-79z" />
    <glyph glyph-name="zdotaccent" unicode="&#x17c;" horiz-adv-x="504" 
d="M454 0h-404v76l326 349v19h-309v56h387v-75l-326 -349v-20h326v-56zM287 648h-69v79h69v-79z" />
    <glyph glyph-name="Zcaron" unicode="&#x17d;" horiz-adv-x="636" 
d="M572 714v-80l-444 -554v-20h458v-60h-536v81l444 553v20h-418v60h496zM283 767l-105 129h66l65 -79h20l65 79h64l-105 -129h-70z" />
    <glyph glyph-name="zcaron" unicode="&#x17e;" horiz-adv-x="504" 
d="M454 0h-404v76l326 349v19h-309v56h387v-75l-326 -349v-20h326v-56zM217 582l-105 145h63l68 -95h20l68 95h61l-105 -145h-70z" />
    <glyph glyph-name="florin" unicode="&#x192;" horiz-adv-x="413" 
d="M109 -200h-63l99 562h-95v56h105l26 148c20 113 80 161 187 161h35v-56h-41c-75 0 -107 -47 -119 -115l-25 -138h127v-56h-137z" />
    <glyph glyph-name="circumflex" unicode="&#x2c6;" horiz-adv-x="360" 
d="M215 727l105 -145h-63l-68 95h-20l-68 -95h-61l105 145h70z" />
    <glyph glyph-name="caron" unicode="&#x2c7;" horiz-adv-x="360" 
d="M145 582l-105 145h63l68 -95h20l68 95h61l-105 -145h-70z" />
    <glyph glyph-name="breve" unicode="&#x2d8;" horiz-adv-x="352" 
d="M260 727h52v-14c0 -84 -62 -131 -136 -131s-136 47 -136 131v14h52v-14c0 -51 36 -83 84 -83s84 32 84 83v14z" />
    <glyph glyph-name="dotaccent" unicode="&#x2d9;" horiz-adv-x="149" 
d="M109 648h-69v79h69v-79z" />
    <glyph glyph-name="ring" unicode="&#x2da;" horiz-adv-x="291" 
d="M146 793c58 0 105 -47 105 -105s-47 -106 -105 -106s-106 48 -106 106s48 105 106 105zM146 628c35 0 60 25 60 60s-25 60 -60 60s-60 -25 -60 -60s25 -60 60 -60z" />
    <glyph glyph-name="ogonek" unicode="&#x2db;" horiz-adv-x="216" 
d="M106 6l52 -6c-41 -21 -77 -57 -77 -96c0 -37 31 -56 79 -57v-47h-17c-71 0 -120 30 -120 95c0 50 45 97 83 111z" />
    <glyph glyph-name="tilde" unicode="&#x2dc;" horiz-adv-x="405" 
d="M318 718h47c0 -92 -34 -129 -90 -129c-66 0 -109 80 -149 80c-33 0 -39 -40 -39 -80h-47c0 92 34 129 90 129c66 0 109 -80 149 -80c33 0 39 39 39 80z" />
    <glyph glyph-name="hungarumlaut" unicode="&#x2dd;" horiz-adv-x="379" 
d="M195 727l-99 -145h-56l77 145h78zM339 727l-99 -145h-56l77 145h78z" />
    <glyph glyph-name="uni03A9" unicode="&#x3a9;" horiz-adv-x="752" 
d="M554 80v-20h139v-60h-267v59c83 48 203 144 203 319s-101 289 -253 289s-253 -114 -253 -289s120 -271 203 -319v-59h-267v60h139v20c-58 50 -141 145 -141 298c0 204 124 349 319 349s319 -145 319 -349c0 -153 -83 -248 -141 -298z" />
    <glyph glyph-name="pi" unicode="&#x3c0;" horiz-adv-x="603" 
d="M551 0h-35c-88 0 -121 45 -121 130v314h-223v-444h-63v444h-81v56h523v-56h-93v-314c0 -51 19 -74 71 -74h22v-56z" />
    <glyph glyph-name="uni0401" unicode="&#x401;" horiz-adv-x="646" 
d="M160 60h436v-60h-502v714h485v-60h-419v-252h341v-60h-341v-282zM276 798h-69v79h69v-79zM452 798h-69v79h69v-79z" />
    <glyph glyph-name="uni0402" unicode="&#x402;" horiz-adv-x="788" 
d="M734 200c0 -120 -72 -213 -230 -213c-7 -1 -14 -1 -21 0c-11 0 -24 1 -32 4v56c11 -3 22 -4 46 -4c125 0 171 67 171 157c0 93 -44 158 -207 158c-56 0 -120 -8 -176 -21v-337h-66v656h-200v58h527v-58h-261v-258c57 12 126 20 185 20c191 0 264 -94 264 -218z" />
    <glyph glyph-name="uni0403" unicode="&#x403;" horiz-adv-x="617" 
d="M571 654h-410v-654h-66v714h476v-60zM461 902l-105 -145h-56l83 145h78z" />
    <glyph glyph-name="uni0404" unicode="&#x404;" horiz-adv-x="709" 
d="M587 187h71c-30 -118 -130 -200 -277 -200c-211 0 -324 165 -324 370c0 208 113 370 324 370c137 0 236 -71 268 -186h-70c-29 80 -90 126 -198 126c-166 0 -243 -127 -256 -268h362v-60h-363c5 -153 81 -292 257 -292c108 0 181 55 206 140z" />
    <glyph glyph-name="uni0405" unicode="&#x405;" horiz-adv-x="653" 
d="M273 420l134 -28c104 -21 186 -74 186 -198c0 -109 -88 -207 -264 -207c-161 0 -262 80 -281 204h69c21 -103 109 -144 215 -144c108 0 195 55 195 147c0 84 -55 119 -139 137l-139 29c-100 22 -167 73 -167 176c0 107 86 191 242 191c144 0 235 -77 251 -186h-67
c-19 77 -70 126 -186 126c-95 0 -174 -46 -174 -131c0 -71 48 -100 125 -116z" />
    <glyph glyph-name="uni0406" unicode="&#x406;" horiz-adv-x="268" 
d="M101 714h66v-714h-66v714z" />
    <glyph glyph-name="uni0407" unicode="&#x407;" horiz-adv-x="268" 
d="M101 714h66v-714h-66v714zM82 808h-69v79h69v-79zM258 808h-69v79h69v-79z" />
    <glyph glyph-name="uni0408" unicode="&#x408;" horiz-adv-x="570" 
d="M261 -13c-125 0 -210 78 -221 223h66c9 -108 67 -163 158 -163c89 0 148 54 148 174v493h66v-491c0 -148 -80 -236 -217 -236z" />
    <glyph glyph-name="uni0409" unicode="&#x409;" horiz-adv-x="1103" 
d="M10 66h17c95 0 142 62 142 380v268h428v-285h210c156 0 242 -80 242 -215c0 -133 -86 -214 -242 -214h-276v654h-298v-208c0 -354 -59 -446 -206 -446h-17v66zM597 60h198c139 0 188 61 188 155c0 93 -49 154 -188 154h-198v-309z" />
    <glyph glyph-name="uni040A" unicode="&#x40a;" horiz-adv-x="1155" 
d="M868 0h-285v351h-423v-351h-66v714h66v-301h423v301h66v-301h219c149 0 233 -78 233 -207s-84 -206 -233 -206zM649 60h209c131 0 177 57 177 146c0 88 -45 145 -177 145h-209v-291z" />
    <glyph glyph-name="uni040B" unicode="&#x40b;" horiz-adv-x="794" 
d="M734 0h-66v205c0 75 0 153 -192 153c-71 0 -135 -8 -191 -21v-337h-66v656h-200v58h527v-58h-261v-258c57 11 136 20 192 20c247 0 257 -114 257 -223v-195z" />
    <glyph glyph-name="uni040C" unicode="&#x40c;" horiz-adv-x="670" 
d="M95 0v714h66v-315h234l148 315h72l-160 -347l169 -367h-72l-157 339h-234v-339h-66zM451 887l-105 -145h-56l83 145h78z" />
    <glyph glyph-name="uni040E" unicode="&#x40e;" horiz-adv-x="608" 
d="M249 0h-70l102 214l-264 500h73l211 -398h28l190 398h71zM414 904h58c0 -101 -77 -156 -169 -156c-91 0 -167 55 -167 156h58c0 -64 46 -102 109 -102c64 0 111 38 111 102z" />
    <glyph glyph-name="uni040F" unicode="&#x40f;" horiz-adv-x="742" 
d="M338 -175v175h-244v714h66v-654h422v654h66v-714h-244v-175h-66z" />
    <glyph glyph-name="uni0410" unicode="&#x410;" horiz-adv-x="673" 
d="M396 714l256 -714h-71l-81 231h-329l-81 -231h-69l255 714h120zM316 644l-124 -353h287l-124 353h-39z" />
    <glyph glyph-name="uni0411" unicode="&#x411;" horiz-adv-x="676" 
d="M160 416h227c152 0 235 -79 235 -208s-83 -208 -235 -208h-293v714h476v-60h-410v-238zM160 60h216c133 0 180 58 180 148s-47 148 -180 148h-216v-296z" />
    <glyph glyph-name="uni0412" unicode="&#x412;" horiz-adv-x="692" 
d="M539 389v-20c65 -31 104 -95 104 -170c0 -112 -80 -199 -240 -199h-309v714h302c149 0 225 -81 225 -178c0 -64 -26 -116 -82 -147zM160 654v-250h239c88 0 156 28 156 128c0 89 -78 122 -157 122h-238zM160 60h243c91 0 174 35 174 145c0 104 -80 139 -173 139h-244
v-284z" />
    <glyph glyph-name="uni0413" unicode="&#x413;" horiz-adv-x="617" 
d="M571 654h-410v-654h-66v714h476v-60z" />
    <glyph glyph-name="uni0414" unicode="&#x414;" horiz-adv-x="741" 
d="M610 60h103v-235h-66v175h-571v-175h-66v235h74c43 102 95 262 95 510v144h431v-654zM544 60v594h-299v-84c0 -239 -47 -409 -87 -510h386z" />
    <glyph glyph-name="uni0415" unicode="&#x415;" horiz-adv-x="646" 
d="M160 60h436v-60h-502v714h485v-60h-419v-252h341v-60h-341v-282z" />
    <glyph glyph-name="uni0416" unicode="&#x416;" horiz-adv-x="1006" 
d="M737 334h-201v-334h-66v334h-201l-137 -334h-72l150 362l-141 352h72l128 -320h201v320h66v-320h201l128 320h72l-141 -352l150 -362h-72z" />
    <glyph glyph-name="uni0417" unicode="&#x417;" horiz-adv-x="645" 
d="M501 532c0 85 -73 135 -170 135c-112 0 -164 -50 -183 -126h-67c16 113 107 186 248 186c160 0 238 -89 238 -186c0 -80 -37 -123 -82 -147v-20c58 -27 111 -73 111 -175c0 -108 -88 -212 -260 -212c-169 0 -262 81 -286 200h69c25 -95 105 -140 218 -140
c115 0 193 58 193 152c0 85 -47 145 -179 145h-118v60h119c112 0 149 61 149 128z" />
    <glyph glyph-name="uni0418" unicode="&#x418;" horiz-adv-x="756" 
d="M94 714h66v-644h21l365 644h116v-714h-66v644h-20l-366 -644h-116v714z" />
    <glyph glyph-name="uni0419" unicode="&#x419;" horiz-adv-x="756" 
d="M488 904h58c0 -101 -77 -156 -169 -156c-91 0 -167 55 -167 156h58c0 -64 46 -102 109 -102c64 0 111 38 111 102zM94 714h66v-644h21l365 644h116v-714h-66v644h-20l-366 -644h-116v714z" />
    <glyph glyph-name="uni041A" unicode="&#x41a;" horiz-adv-x="659" 
d="M94 0v714h66v-315h234l148 315h72l-160 -347l169 -367h-72l-157 339h-234v-339h-66z" />
    <glyph glyph-name="uni041B" unicode="&#x41b;" horiz-adv-x="711" 
d="M10 66h17c95 0 142 62 142 380v268h448v-714h-66v654h-318v-208c0 -354 -59 -446 -206 -446h-17v66z" />
    <glyph glyph-name="uni041C" unicode="&#x41c;" horiz-adv-x="849" 
d="M94 0v714h115l208 -354h19l203 354h116v-714h-66v644h-20l-209 -359h-70l-210 359h-20v-644h-66z" />
    <glyph glyph-name="uni041D" unicode="&#x41d;" horiz-adv-x="753" 
d="M593 714h66v-714h-66v338h-433v-338h-66v714h66v-314h433v314z" />
    <glyph glyph-name="uni041E" unicode="&#x41e;" horiz-adv-x="768" 
d="M384 727c213 0 327 -166 327 -370s-114 -370 -327 -370c-214 0 -327 166 -327 370s113 370 327 370zM384 47c184 0 261 154 261 310s-77 310 -261 310s-261 -154 -261 -310s77 -310 261 -310z" />
    <glyph glyph-name="uni041F" unicode="&#x41f;" horiz-adv-x="746" 
d="M94 714h558v-714h-66v654h-426v-654h-66v714z" />
    <glyph glyph-name="uni0420" unicode="&#x420;" horiz-adv-x="676" 
d="M94 714h293c152 0 235 -79 235 -208s-83 -208 -235 -208h-227v-298h-66v714zM160 358h216c133 0 180 58 180 148s-47 148 -180 148h-216v-296z" />
    <glyph glyph-name="uni0421" unicode="&#x421;" horiz-adv-x="710" 
d="M588 193h71c-30 -121 -125 -206 -276 -206c-210 0 -326 161 -326 370s116 370 327 370c139 0 238 -72 267 -192h-70c-31 84 -88 132 -197 132c-182 0 -261 -151 -261 -310c0 -160 78 -310 260 -310c109 0 178 58 205 146z" />
    <glyph glyph-name="uni0422" unicode="&#x422;" horiz-adv-x="585" 
d="M566 714v-58h-240v-656h-66v656h-241v58h547z" />
    <glyph glyph-name="uni0423" unicode="&#x423;" horiz-adv-x="608" 
d="M249 0h-70l102 214l-264 500h73l211 -398h28l190 398h71z" />
    <glyph glyph-name="uni0424" unicode="&#x424;" horiz-adv-x="834" 
d="M450 656h13c197 0 327 -97 327 -289c0 -196 -130 -289 -327 -289h-13v-91h-66v91h-13c-198 0 -327 93 -327 289c0 192 130 289 327 289h13v81h66v-81zM371 138h13v458h-13c-160 0 -261 -74 -261 -229s101 -229 261 -229zM450 138h13c159 0 261 74 261 229
s-101 229 -261 229h-13v-458z" />
    <glyph glyph-name="uni0425" unicode="&#x425;" horiz-adv-x="628" 
d="M525 0l-191 337h-40l-196 -337h-75l221 378l-189 336h75l165 -294h40l166 294h75l-191 -332l220 -382h-80z" />
    <glyph glyph-name="uni0426" unicode="&#x426;" horiz-adv-x="778" 
d="M684 -175v175h-590v714h66v-654h421v654h66v-654h103v-235h-66z" />
    <glyph glyph-name="uni0427" unicode="&#x427;" horiz-adv-x="669" 
d="M60 714h66v-205c0 -75 0 -153 192 -153c71 0 135 8 191 21v337h66v-714h-66v316c-56 -13 -137 -20 -192 -20c-247 0 -257 114 -257 223v195z" />
    <glyph glyph-name="uni0428" unicode="&#x428;" horiz-adv-x="990" 
d="M462 60v654h66v-654h302v654h66v-714h-802v714h66v-654h302z" />
    <glyph glyph-name="uni0429" unicode="&#x429;" horiz-adv-x="1027" 
d="M933 -175v175h-839v714h66v-654h302v654h66v-654h302v654h66v-654h103v-235h-66z" />
    <glyph glyph-name="uni042A" unicode="&#x42a;" horiz-adv-x="765" 
d="M469 0h-286v654h-183v60h249v-285h220c156 0 242 -80 242 -215c0 -133 -86 -214 -242 -214zM249 60h208c139 0 188 61 188 155c0 93 -49 154 -188 154h-208v-309z" />
    <glyph glyph-name="uni042B" unicode="&#x42b;" horiz-adv-x="875" 
d="M160 60h198c139 0 188 61 188 155c0 93 -49 154 -188 154h-198v-309zM370 0h-276v714h66v-285h210c156 0 242 -80 242 -215c0 -133 -86 -214 -242 -214zM715 714h66v-714h-66v714z" />
    <glyph glyph-name="uni042C" unicode="&#x42c;" horiz-adv-x="676" 
d="M160 60h208c139 0 188 61 188 155c0 93 -49 154 -188 154h-208v-309zM380 0h-286v714h66v-285h220c156 0 242 -80 242 -215c0 -133 -86 -214 -242 -214z" />
    <glyph glyph-name="uni042D" unicode="&#x42d;" horiz-adv-x="708" 
d="M50 187h71c25 -85 98 -140 206 -140c176 0 252 139 257 292h-363v60h362c-13 141 -90 268 -256 268c-108 0 -169 -46 -198 -126h-70c32 115 131 186 268 186c211 0 324 -162 324 -370c0 -205 -113 -370 -324 -370c-147 0 -247 82 -277 200z" />
    <glyph glyph-name="uni042E" unicode="&#x42e;" horiz-adv-x="1012" 
d="M637 727c208 0 318 -166 318 -370s-110 -370 -318 -370c-203 0 -310 156 -318 351h-159v-338h-66v714h66v-314h161c13 183 124 327 316 327zM637 47c180 0 252 154 252 310s-72 310 -252 310s-252 -154 -252 -310s72 -310 252 -310z" />
    <glyph glyph-name="uni042F" unicode="&#x42f;" horiz-adv-x="710" 
d="M308 714h308v-714h-66v311h-242c-21 0 -39 1 -54 4l-112 -315h-69l117 332c-72 31 -111 93 -111 180c0 127 81 202 229 202zM318 371h232v283h-232c-128 0 -173 -55 -173 -142s46 -141 173 -141z" />
    <glyph glyph-name="uni0430" unicode="&#x430;" horiz-adv-x="546" 
d="M408 0v56h-20c-31 -40 -89 -69 -162 -69c-118 0 -181 77 -181 161c0 79 49 164 187 164h174v31c0 64 -38 114 -135 114c-83 0 -126 -33 -130 -86h-63c8 91 84 142 193 142c121 0 198 -62 198 -166v-347h-61zM235 43c93 0 171 65 171 157v59h-157
c-92 0 -141 -42 -141 -106c0 -71 51 -110 127 -110z" />
    <glyph glyph-name="uni0431" unicode="&#x431;" horiz-adv-x="592" 
d="M303 500c155 0 236 -115 236 -257c0 -141 -87 -256 -242 -256c-156 0 -244 109 -244 300c0 172 21 349 198 378l137 22c36 5 45 11 48 40h63c-4 -55 -25 -87 -98 -99l-149 -24c-99 -16 -123 -95 -134 -178h19c44 56 97 74 166 74zM295 43c121 0 179 99 179 200
c0 102 -58 201 -179 201c-122 0 -179 -99 -179 -201c0 -101 57 -200 179 -200z" />
    <glyph glyph-name="uni0432" unicode="&#x432;" horiz-adv-x="554" 
d="M418 275v-20c49 -13 86 -54 86 -118c0 -92 -64 -137 -177 -137h-242v500h233c100 0 157 -46 157 -126c0 -48 -26 -83 -57 -99zM148 56h185c81 0 108 38 108 86c0 47 -27 87 -108 87h-185v-173zM148 444v-159h171c69 0 93 38 93 79c0 43 -23 80 -93 80h-171z" />
    <glyph glyph-name="uni0433" unicode="&#x433;" horiz-adv-x="480" 
d="M85 0v500h363v-56h-300v-444h-63z" />
    <glyph glyph-name="uni0434" unicode="&#x434;" horiz-adv-x="639" 
d="M516 56h93v-199h-63v143h-458v-143h-63v199h63c35 68 69 174 69 310v134h359v-444zM453 56v388h-236v-78c0 -136 -26 -242 -61 -310h297z" />
    <glyph glyph-name="uni0435" unicode="&#x435;" horiz-adv-x="558" 
d="M505 281v-20h-389v-14c0 -124 69 -204 175 -204c77 0 125 34 141 89h63c-16 -80 -83 -145 -204 -145c-155 0 -238 120 -238 269c0 152 88 257 237 257c145 0 215 -114 215 -232zM288 457c-102 0 -157 -69 -168 -140h320c-5 71 -56 140 -152 140z" />
    <glyph glyph-name="uni0436" unicode="&#x436;" horiz-adv-x="759" 
d="M207 228l-99 -228h-68l112 257l-105 243h67l93 -216h141v216h63v-216h141l93 216h67l-105 -243l112 -257h-68l-99 228h-141v-228h-63v228h-141z" />
    <glyph glyph-name="uni0437" unicode="&#x437;" horiz-adv-x="517" 
d="M380 368c0 57 -51 89 -120 89c-79 0 -119 -28 -132 -88h-63c9 88 82 144 194 144c123 0 184 -64 184 -137c0 -56 -27 -93 -59 -104v-20c37 -13 78 -44 78 -117c0 -76 -68 -148 -200 -148c-131 0 -202 60 -217 149h63c21 -71 80 -93 155 -93c80 0 136 31 136 94
c0 53 -30 90 -124 90h-89v56h87c79 0 107 41 107 85z" />
    <glyph glyph-name="uni0438" unicode="&#x438;" horiz-adv-x="601" 
d="M196 0h-111v500h63v-438h20l232 438h116v-500h-63v438h-20z" />
    <glyph glyph-name="uni0439" unicode="&#x439;" horiz-adv-x="601" 
d="M196 0h-111v500h63v-438h20l232 438h116v-500h-63v438h-20zM390 727h53v-12c0 -86 -65 -133 -145 -133c-81 0 -144 47 -144 133v12h53v-12c0 -52 36 -84 91 -84c56 0 92 32 92 84v12z" />
    <glyph glyph-name="uni043A" unicode="&#x43a;" horiz-adv-x="539" 
d="M430 0l-115 230h-167v-230h-63v500h63v-214h168l108 214h68l-122 -241l129 -259h-69z" />
    <glyph glyph-name="uni043B" unicode="&#x43b;" horiz-adv-x="593" 
d="M26 0v58h17c71 0 101 56 101 255v187h364v-500h-63v444h-242v-131c0 -237 -47 -313 -160 -313h-17z" />
    <glyph glyph-name="uni043C" unicode="&#x43c;" horiz-adv-x="677" 
d="M85 0v500h112l133 -242h20l130 242h112v-500h-63v438h-18l-130 -238h-84l-131 238h-18v-438h-63z" />
    <glyph glyph-name="uni043D" unicode="&#x43d;" horiz-adv-x="601" 
d="M516 0h-63v230h-305v-230h-63v500h63v-214h305v214h63v-500z" />
    <glyph glyph-name="uni043E" unicode="&#x43e;" horiz-adv-x="588" 
d="M294 513c155 0 241 -118 241 -263s-86 -263 -241 -263c-156 0 -241 118 -241 263s85 263 241 263zM294 43c120 0 178 102 178 207s-58 207 -178 207c-123 0 -178 -102 -178 -207s55 -207 178 -207z" />
    <glyph glyph-name="uni043F" unicode="&#x43f;" horiz-adv-x="597" 
d="M512 0h-63v444h-301v-444h-63v500h427v-500z" />
    <glyph glyph-name="uni0440" unicode="&#x440;" horiz-adv-x="604" 
d="M328 -13c-83 0 -132 33 -160 69h-20v-256h-63v700h61v-56h20c28 35 79 69 162 69c140 0 223 -115 223 -263c0 -149 -83 -263 -223 -263zM320 457c-123 0 -172 -102 -172 -207c0 -106 49 -207 172 -207c109 0 168 84 168 207s-59 207 -168 207z" />
    <glyph glyph-name="uni0441" unicode="&#x441;" horiz-adv-x="541" 
d="M432 143h63c-20 -92 -90 -156 -203 -156c-155 0 -239 118 -239 263c0 147 84 263 239 263c116 0 182 -64 201 -152h-63c-19 57 -61 96 -138 96c-125 0 -176 -96 -176 -205c0 -108 52 -209 176 -209c80 0 125 40 140 100z" />
    <glyph glyph-name="uni0442" unicode="&#x442;" horiz-adv-x="476" 
d="M30 444v56h416v-56h-176v-444h-63v444h-177z" />
    <glyph glyph-name="uni0443" unicode="&#x443;" horiz-adv-x="516" 
d="M197 -200h-64l103 247l-212 453h68l165 -353h24l149 353h66z" />
    <glyph glyph-name="uni0444" unicode="&#x444;" horiz-adv-x="688" 
d="M376 0v-200h-63v200h-18c-156 0 -242 105 -242 250s86 250 242 250h18v227h63v-227h17c156 0 242 -105 242 -250s-86 -250 -242 -250h-17zM116 250c0 -105 57 -194 179 -194h18v388h-18c-122 0 -179 -89 -179 -194zM376 56h17c122 0 179 89 179 194s-57 194 -179 194h-17
v-388z" />
    <glyph glyph-name="uni0445" unicode="&#x445;" horiz-adv-x="531" 
d="M418 0l-134 221h-36l-139 -221h-70l162 256l-145 244h68l124 -209h36l126 209h68l-147 -241l161 -259h-74z" />
    <glyph glyph-name="uni0446" unicode="&#x446;" horiz-adv-x="631" 
d="M445 500h63v-444h93v-199h-63v143h-453v500h63v-444h297v444z" />
    <glyph glyph-name="uni0447" unicode="&#x447;" horiz-adv-x="544" 
d="M56 500h63v-140c0 -54 -1 -111 139 -111c51 0 97 6 138 15v236h63v-500h-63v208c-43 -9 -102 -15 -145 -15c-188 0 -195 85 -195 169v138z" />
    <glyph glyph-name="uni0448" unicode="&#x448;" horiz-adv-x="791" 
d="M643 500h63v-500h-621v500h63v-444h216v444h63v-444h216v444z" />
    <glyph glyph-name="uni0449" unicode="&#x449;" horiz-adv-x="829" 
d="M643 500h63v-444h93v-199h-63v143h-651v500h63v-444h216v444h63v-444h216v444z" />
    <glyph glyph-name="uni044A" unicode="&#x44a;" horiz-adv-x="616" 
d="M20 444v56h214v-175h158c119 0 184 -61 184 -162s-65 -163 -184 -163h-221v444h-151zM234 56h150c96 0 129 42 129 106c0 65 -33 107 -129 107h-150v-213z" />
    <glyph glyph-name="uni044B" unicode="&#x44b;" horiz-adv-x="710" 
d="M148 500v-175h148c119 0 184 -61 184 -162s-65 -163 -184 -163h-211v500h63zM148 56h140c96 0 129 42 129 106c0 65 -33 107 -129 107h-140v-213zM625 500v-500h-63v500h63z" />
    <glyph glyph-name="uni044C" unicode="&#x44c;" horiz-adv-x="530" 
d="M148 500v-175h158c119 0 184 -61 184 -162s-65 -163 -184 -163h-221v500h63zM148 56h150c96 0 129 42 129 106c0 65 -33 107 -129 107h-150v-213z" />
    <glyph glyph-name="uni044D" unicode="&#x44d;" horiz-adv-x="547" 
d="M52 138h64c15 -56 63 -95 146 -95c105 0 163 81 168 183h-246v56h245c-5 99 -62 175 -166 175c-80 0 -128 -36 -144 -91h-64c19 85 93 147 205 147c152 0 234 -110 234 -263c0 -152 -83 -263 -235 -263c-108 0 -188 62 -207 151z" />
    <glyph glyph-name="uni044E" unicode="&#x44e;" horiz-adv-x="796" 
d="M507 513c152 0 236 -118 236 -263s-84 -263 -236 -263c-144 0 -227 107 -235 243h-124v-230h-63v500h63v-214h126c13 128 94 227 233 227zM507 43c117 0 173 102 173 207s-56 207 -173 207s-172 -102 -172 -207s55 -207 172 -207z" />
    <glyph glyph-name="uni044F" unicode="&#x44f;" horiz-adv-x="569" 
d="M238 500h246v-500h-63v211h-183c-9 0 -18 0 -26 1l-81 -212h-66l87 226c-52 23 -78 66 -78 129c0 91 57 145 164 145zM421 444h-177c-79 0 -107 -36 -107 -89s27 -88 107 -88h177v177z" />
    <glyph glyph-name="uni0451" unicode="&#x451;" horiz-adv-x="558" 
d="M505 281v-20h-389v-14c0 -124 69 -204 175 -204c77 0 125 34 141 89h63c-16 -80 -83 -145 -204 -145c-155 0 -238 120 -238 269c0 152 88 257 237 257c145 0 215 -114 215 -232zM288 457c-102 0 -157 -69 -168 -140h320c-5 71 -56 140 -152 140zM235 648h-69v79h69v-79z
M411 648h-69v79h69v-79z" />
    <glyph glyph-name="uni0452" unicode="&#x452;" horiz-adv-x="612" 
d="M387 -200h-63v56h47c75 0 101 41 101 113v307c0 101 -46 151 -139 151c-99 0 -165 -87 -165 -184v-243h-63v586h-85v50h85v91h63v-91h218v-50h-218v-178h20c27 40 85 75 154 75c121 0 193 -74 193 -191v-324c0 -100 -48 -168 -148 -168z" />
    <glyph glyph-name="uni0453" unicode="&#x453;" horiz-adv-x="480" 
d="M85 0v500h363v-56h-300v-444h-63zM389 727l-105 -145h-56l83 145h78z" />
    <glyph glyph-name="uni0454" unicode="&#x454;" horiz-adv-x="541" 
d="M431 138h64c-19 -89 -99 -151 -207 -151c-152 0 -235 111 -235 263c0 153 82 263 234 263c112 0 186 -62 205 -147h-64c-16 55 -64 91 -144 91c-104 0 -161 -76 -166 -175h245v-56h-246c5 -102 63 -183 168 -183c83 0 131 39 146 95z" />
    <glyph glyph-name="uni0455" unicode="&#x455;" horiz-adv-x="501" 
d="M258 -13c-137 0 -204 60 -217 152h62c12 -63 65 -96 149 -96c87 0 142 32 142 96c0 49 -27 79 -99 90c-22 3 -85 13 -119 21c-67 13 -115 49 -115 120c0 81 64 143 192 143c113 0 180 -55 191 -139h-62c-7 55 -64 83 -133 83c-79 0 -125 -30 -125 -81
c0 -44 28 -64 85 -75c17 -3 34 -5 49 -8l62 -10c83 -15 137 -57 137 -142c0 -80 -71 -154 -199 -154z" />
    <glyph glyph-name="uni0456" unicode="&#x456;" horiz-adv-x="239" 
d="M151 500v-500h-63v500h63zM154 648h-69v79h69v-79z" />
    <glyph glyph-name="uni0457" unicode="&#x457;" horiz-adv-x="239" 
d="M151 500v-500h-63v500h63zM67 648h-69v79h69v-79zM243 648h-69v79h69v-79z" />
    <glyph glyph-name="uni0458" unicode="&#x458;" horiz-adv-x="250" 
d="M15 -200h-63v56h47c75 0 101 39 101 111v533h63v-532c0 -100 -48 -168 -148 -168zM165 648h-69v79h69v-79z" />
    <glyph glyph-name="uni0459" unicode="&#x459;" horiz-adv-x="871" 
d="M26 0v58h17c71 0 101 56 101 255v187h357v-175h146c119 0 184 -61 184 -162s-65 -163 -184 -163h-209v444h-235v-131c0 -237 -47 -313 -160 -313h-17zM501 56h138c96 0 129 42 129 106c0 65 -33 107 -129 107h-138v-213z" />
    <glyph glyph-name="uni045A" unicode="&#x45a;" horiz-adv-x="838" 
d="M614 0h-191v230h-275v-230h-63v500h63v-214h275v214h63v-175h128c119 0 184 -61 184 -162s-65 -163 -184 -163zM486 56h120c96 0 129 42 129 106c0 65 -33 107 -129 107h-120v-213z" />
    <glyph glyph-name="uni045B" unicode="&#x45b;" horiz-adv-x="612" 
d="M535 0h-63v276c0 101 -46 151 -139 151c-99 0 -165 -87 -165 -184v-243h-63v586h-85v50h85v91h63v-91h218v-50h-218v-178h20c27 40 85 75 154 75c121 0 193 -74 193 -191v-292z" />
    <glyph glyph-name="uni045C" unicode="&#x45c;" horiz-adv-x="539" 
d="M430 0l-115 230h-167v-230h-63v500h63v-214h168l108 214h68l-122 -241l129 -259h-69zM391 727l-105 -145h-56l83 145h78z" />
    <glyph glyph-name="uni045E" unicode="&#x45e;" horiz-adv-x="516" 
d="M197 -200h-64l103 247l-212 453h68l165 -353h24l149 353h66zM346 727h53v-12c0 -86 -65 -133 -145 -133c-81 0 -144 47 -144 133v12h53v-12c0 -52 36 -84 91 -84c56 0 92 32 92 84v12z" />
    <glyph glyph-name="uni045F" unicode="&#x45f;" horiz-adv-x="593" 
d="M445 500h63v-500h-180v-143h-63v143h-180v500h63v-444h297v444z" />
    <glyph glyph-name="uni0490" unicode="&#x490;" horiz-adv-x="617" 
d="M161 654v-654h-66v714h408v150h68v-210h-410z" />
    <glyph glyph-name="uni0491" unicode="&#x491;" horiz-adv-x="474" 
d="M375 615h63v-171h-290v-444h-63v500h290v115z" />
    <glyph glyph-name="uni0492" unicode="&#x492;" horiz-adv-x="650" 
d="M30 327v56h98v331h476v-60h-410v-271h261v-56h-261v-327h-66v327h-98z" />
    <glyph glyph-name="uni0493" unicode="&#x493;" horiz-adv-x="510" 
d="M25 205v56h90v239h363v-56h-300v-183h199v-56h-199v-205h-63v205h-90z" />
    <glyph glyph-name="uni049A" unicode="&#x49a;" horiz-adv-x="701" 
d="M94 0v714h66v-315h234l148 315h72l-160 -347l141 -307h81v-235h-66v175h-59l-157 339h-234v-339h-66z" />
    <glyph glyph-name="uni049B" unicode="&#x49b;" horiz-adv-x="576" 
d="M430 0l-115 230h-167v-230h-63v500h63v-214h168l108 214h68l-122 -241l101 -203h75v-199h-63v143h-53z" />
    <glyph glyph-name="uni04A2" unicode="&#x4a2;" horiz-adv-x="790" 
d="M593 714h66v-654h103v-235h-66v175h-103v338h-433v-338h-66v714h66v-314h433v314z" />
    <glyph glyph-name="uni04A3" unicode="&#x4a3;" horiz-adv-x="639" 
d="M516 500v-444h93v-199h-63v143h-93v230h-305v-230h-63v500h63v-214h305v214h63z" />
    <glyph glyph-name="uni04AE" unicode="&#x4ae;" horiz-adv-x="628" 
d="M300 373h28l206 341h73l-260 -434v-280h-66v280l-260 434h73z" />
    <glyph glyph-name="uni04AF" unicode="&#x4af;" horiz-adv-x="524" 
d="M199 -34l-175 534h65l156 -478h37l151 478h67l-178 -534h-29v-166h-63v166h-31z" />
    <glyph glyph-name="uni04B0" unicode="&#x4b0;" horiz-adv-x="628" 
d="M95 260v56h164l-238 398h73l206 -341h28l206 341h73l-239 -398h165v-56h-186v-260h-66v260h-186z" />
    <glyph glyph-name="uni04B1" unicode="&#x4b1;" horiz-adv-x="524" 
d="M86 -56v56h102l-164 500h65l156 -478h37l151 478h67l-167 -500h105v-56h-145v-144h-63v144h-144z" />
    <glyph glyph-name="uni04BA" unicode="&#x4ba;" horiz-adv-x="669" 
d="M609 0h-66v205c0 75 0 153 -192 153c-71 0 -135 -8 -191 -21v-337h-66v714h66v-316c56 13 137 20 192 20c247 0 257 -114 257 -223v-195z" />
    <glyph glyph-name="uni04BB" unicode="&#x4bb;" horiz-adv-x="593" 
d="M515 0h-63v307c0 100 -46 150 -139 150c-99 0 -165 -86 -165 -183v-274h-63v727h63v-283h20c27 39 87 69 154 69c121 0 193 -74 193 -191v-322z" />
    <glyph glyph-name="uni04D8" unicode="&#x4d8;" horiz-adv-x="747" 
d="M362 727c212 0 328 -165 328 -370c0 -204 -113 -370 -326 -370c-203 0 -311 159 -311 375c0 12 0 25 1 37h568c-13 144 -95 268 -262 268c-112 0 -176 -46 -200 -126h-70c29 117 132 186 272 186zM364 47c176 0 254 139 259 292h-503c0 -151 76 -292 244 -292z" />
    <glyph glyph-name="uni04D9" unicode="&#x4d9;" horiz-adv-x="558" 
d="M52 242c0 9 0 19 1 30h387c-11 117 -75 185 -174 185c-80 0 -123 -33 -140 -89h-63c16 83 86 145 202 145c156 0 240 -121 240 -269c0 -152 -87 -257 -236 -257c-140 0 -217 100 -217 255zM271 43c97 0 163 58 170 174h-328c1 -107 58 -174 158 -174z" />
    <glyph glyph-name="uni04E8" unicode="&#x4e8;" horiz-adv-x="768" 
d="M384 727c213 0 327 -166 327 -370s-114 -370 -327 -370c-214 0 -327 166 -327 370s113 370 327 370zM384 47c178 0 255 141 260 292h-521c5 -151 83 -292 261 -292zM384 667c-168 0 -248 -127 -259 -268h518c-13 141 -91 268 -259 268z" />
    <glyph glyph-name="uni04E9" unicode="&#x4e9;" horiz-adv-x="590" 
d="M295 513c155 0 242 -118 242 -263s-87 -263 -242 -263c-156 0 -242 118 -242 263s86 263 242 263zM295 43c112 0 170 87 178 183h-356c8 -96 66 -183 178 -183zM295 457c-109 0 -167 -83 -178 -175h355c-11 92 -69 175 -177 175z" />
    <glyph glyph-name="endash" unicode="&#x2013;" horiz-adv-x="615" 
d="M565 247h-515v57h515v-57z" />
    <glyph glyph-name="emdash" unicode="&#x2014;" horiz-adv-x="875" 
d="M825 247h-775v57h775v-57z" />
    <glyph glyph-name="quoteleft" unicode="&#x2018;" horiz-adv-x="244" 
d="M121 610h43v-102h-84v119l48 87h41l-48 -87v-17z" />
    <glyph glyph-name="quoteright" unicode="&#x2019;" horiz-adv-x="244" 
d="M123 612h-43v102h84v-119l-48 -87h-41l48 87v17z" />
    <glyph glyph-name="quotesinglbase" unicode="&#x201a;" horiz-adv-x="244" 
d="M123 0h-43v102h84v-119l-48 -87h-41l48 87v17z" />
    <glyph glyph-name="quotedblleft" unicode="&#x201c;" horiz-adv-x="400" 
d="M121 610h43v-102h-84v119l48 87h41l-48 -87v-17zM277 610h43v-102h-84v119l48 87h41l-48 -87v-17z" />
    <glyph glyph-name="quotedblright" unicode="&#x201d;" horiz-adv-x="400" 
d="M123 612h-43v102h84v-119l-48 -87h-41l48 87v17zM279 612h-43v102h84v-119l-48 -87h-41l48 87v17z" />
    <glyph glyph-name="quotedblbase" unicode="&#x201e;" horiz-adv-x="400" 
d="M123 0h-43v102h84v-119l-48 -87h-41l48 87v17zM279 0h-43v102h84v-119l-48 -87h-41l48 87v17z" />
    <glyph glyph-name="dagger" unicode="&#x2020;" horiz-adv-x="549" 
d="M243 447h-193v53h193v214h63v-214h193v-53h-193v-599h-63v599z" />
    <glyph glyph-name="daggerdbl" unicode="&#x2021;" horiz-adv-x="549" 
d="M243 447h-193v53h193v214h63v-214h193v-53h-193v-332h193v-53h-193v-214h-63v214h-193v53h193v332z" />
    <glyph glyph-name="bullet" unicode="&#x2022;" horiz-adv-x="434" 
d="M70 356c0 81 66 147 147 147s147 -66 147 -147s-66 -147 -147 -147s-147 66 -147 147z" />
    <glyph glyph-name="ellipsis" unicode="&#x2026;" horiz-adv-x="712" 
d="M164 0h-84v102h84v-102zM164 0h-84v102h84v-102zM398 0h-84v102h84v-102zM632 0h-84v102h84v-102z" />
    <glyph glyph-name="perthousand" unicode="&#x2030;" horiz-adv-x="1244" 
d="M257 0h-65l424 700h64zM209 714c105 0 159 -86 159 -189s-54 -189 -159 -189c-106 0 -159 86 -159 189s53 189 159 189zM209 387c68 0 101 60 101 138s-33 138 -101 138s-101 -60 -101 -138s33 -138 101 -138zM1035 365c105 0 159 -86 159 -189s-54 -189 -159 -189
c-106 0 -159 86 -159 189s53 189 159 189zM1035 38c68 0 101 60 101 138s-33 138 -101 138s-101 -60 -101 -138s33 -138 101 -138zM663 365c105 0 159 -86 159 -189s-54 -189 -159 -189c-106 0 -159 86 -159 189s53 189 159 189zM663 38c68 0 101 60 101 138
s-33 138 -101 138s-101 -60 -101 -138s33 -138 101 -138z" />
    <glyph glyph-name="guilsinglleft" unicode="&#x2039;" horiz-adv-x="335" 
d="M117 292v-20l158 -168h-71l-144 148v59l144 149h71z" />
    <glyph glyph-name="guilsinglright" unicode="&#x203a;" horiz-adv-x="335" 
d="M218 272v20l-158 168h71l144 -149v-59l-144 -148h-71z" />
    <glyph glyph-name="fraction" unicode="&#x2044;" horiz-adv-x="221" 
d="M-72 0h-62l424 700h61z" />
    <glyph glyph-name="Euro" unicode="&#x20ac;" horiz-adv-x="670" 
d="M413 319l-18 -52h-213c19 -145 89 -222 197 -222c96 0 155 54 168 146h65c-17 -129 -105 -204 -233 -204c-136 0 -239 87 -263 280h-76l18 52h54v31c0 16 0 32 1 47h-73l18 52h61c27 181 133 265 260 265c125 0 208 -70 227 -195h-66c-13 87 -65 137 -161 137
c-101 0 -172 -72 -195 -207h274l-18 -52h-261c-1 -15 -2 -31 -2 -47v-31h236z" />
    <glyph glyph-name="uni20B4" unicode="&#x20b4;" horiz-adv-x="633" 
d="M512 177h64c-17 -115 -103 -190 -244 -190c-150 0 -241 84 -241 200c0 27 5 52 16 77h-67v52h553v-52h-417c-13 -21 -20 -47 -20 -77c0 -91 73 -142 174 -142c93 0 163 43 182 132zM335 714c132 0 215 -86 215 -182c0 -31 -7 -60 -22 -86h65v-52h-553v52h415
c20 21 30 49 30 84c0 80 -65 126 -150 126c-96 0 -145 -42 -162 -113h-64c16 101 101 171 226 171z" />
    <glyph glyph-name="uni20B8" unicode="&#x20b8;" horiz-adv-x="515" 
d="M19 518v52h477v-52h-206v-518h-65v518h-206zM19 648v52h477v-52h-477z" />
    <glyph glyph-name="uni20BD" unicode="&#x20bd;" horiz-adv-x="681" 
d="M50 304v52h99v344h248c145 0 224 -73 224 -198c0 -124 -79 -198 -224 -198h-183v-78h259v-52h-259v-174h-65v174h-99v52h99v78h-99zM214 356h173c124 0 169 59 169 144c0 87 -45 142 -169 142h-173v-286z" />
    <glyph glyph-name="uni2116" unicode="&#x2116;" horiz-adv-x="1146" 
d="M587 700h65v-700h-118l-356 631h-19v-631h-65v700h118l356 -631h19v631zM916 714c108 0 159 -83 159 -191s-51 -187 -159 -187s-159 81 -159 189s51 189 159 189zM916 387c68 0 101 60 101 138s-33 138 -101 138s-101 -60 -101 -138s33 -138 101 -138zM1076 217h-319v51
h319v-51z" />
    <glyph glyph-name="trademark" unicode="&#x2122;" horiz-adv-x="849" 
d="M404 333v381h89l95 -181h12l93 181h89v-381h-52v328h-10l-96 -184h-60l-98 184h-10v-328h-52zM340 714v-46h-131v-335h-52v335h-132v46h315z" />
    <glyph glyph-name="Omega" unicode="&#x2126;" horiz-adv-x="752" 
d="M554 80v-20h139v-60h-267v59c83 48 203 144 203 319s-101 289 -253 289s-253 -114 -253 -289s120 -271 203 -319v-59h-267v60h139v20c-58 50 -141 145 -141 298c0 204 124 349 319 349s319 -145 319 -349c0 -153 -83 -248 -141 -298z" />
    <glyph glyph-name="arrowleft" unicode="&#x2190;" horiz-adv-x="827" 
d="M298 500h78l-201 -201v-21h587v-56h-587v-21l201 -201h-78l-250 250z" />
    <glyph glyph-name="arrowup" unicode="&#x2191;" horiz-adv-x="680" 
d="M590 464v-78l-201 201h-21v-587h-56v587h-21l-201 -201v78l250 250z" />
    <glyph glyph-name="arrowright" unicode="&#x2192;" horiz-adv-x="822" 
d="M446 500h78l250 -250l-250 -250h-78l201 201v21h-587v56h587v21z" />
    <glyph glyph-name="arrowdown" unicode="&#x2193;" horiz-adv-x="680" 
d="M90 250v78l201 -201h21v587h56v-587h21l201 201v-78l-250 -250z" />
    <glyph glyph-name="uni2196" unicode="&#x2196;" horiz-adv-x="704" 
d="M145 306l-55 55v353h353l55 -55h-284l-15 -15l415 -415l-39 -39l-415 415l-15 -15v-284z" />
    <glyph glyph-name="uni2197" unicode="&#x2197;" horiz-adv-x="704" 
d="M614 361l-55 -55v284l-15 15l-415 -415l-39 39l415 415l-15 15h-284l55 55h353v-353z" />
    <glyph glyph-name="uni2198" unicode="&#x2198;" horiz-adv-x="704" 
d="M90 353l55 55v-284l15 -15l415 415l39 -39l-415 -415l15 -15h284l-55 -55h-353v353z" />
    <glyph glyph-name="uni2199" unicode="&#x2199;" horiz-adv-x="704" 
d="M559 408l55 -55v-353h-353l-55 55h284l15 15l-415 415l39 39l415 -415l15 15v284z" />
    <glyph glyph-name="partialdiff" unicode="&#x2202;" horiz-adv-x="582" 
d="M291 43c124 0 176 88 176 186s-52 187 -176 187s-177 -89 -177 -187s53 -186 177 -186zM172 727h79c104 -77 278 -226 278 -472c0 -149 -76 -268 -240 -268c-148 0 -236 112 -236 243s89 242 234 242c53 0 101 -18 130 -47h23c-56 134 -174 232 -268 302z" />
    <glyph glyph-name="increment" unicode="&#x2206;" horiz-adv-x="634" 
d="M362 700l232 -620v-80h-554v80l232 620h90zM530 60v20l-203 550h-20l-203 -550v-20h426z" />
    <glyph glyph-name="product" unicode="&#x220f;" horiz-adv-x="586" 
d="M459 -200h-68v854h-196v-854h-68v854h-97v60h526v-60h-97v-854z" />
    <glyph glyph-name="summation" unicode="&#x2211;" horiz-adv-x="546" 
d="M118 60h398v-60h-476v81l210 266v20l-201 267v80h451v-60h-373v-20l201 -267v-20l-210 -267v-20z" />
    <glyph glyph-name="minus" unicode="&#x2212;" horiz-adv-x="684" 
d="M594 255h-504v54h504v-54z" />
    <glyph glyph-name="radical" unicode="&#x221a;" horiz-adv-x="634" 
d="M37 500h62l132 -430h20l209 630h144v-54h-101l-216 -646h-94z" />
    <glyph glyph-name="infinity" unicode="&#x221e;" horiz-adv-x="937" 
d="M456 324h25c49 51 111 120 202 120c96 0 164 -63 164 -162s-68 -162 -164 -162c-90 0 -155 67 -202 120h-25c-47 -53 -112 -120 -202 -120c-96 0 -164 63 -164 162s68 162 164 162c91 0 153 -69 202 -120zM425 282c-43 51 -96 111 -168 111c-61 0 -112 -39 -112 -111
s51 -111 112 -111c71 0 126 59 168 111zM512 282c42 -52 97 -111 168 -111c61 0 112 39 112 111s-51 111 -112 111c-72 0 -125 -60 -168 -111z" />
    <glyph glyph-name="integral" unicode="&#x222b;" horiz-adv-x="461" 
d="M414 727h35v-56h-41c-75 0 -107 -47 -119 -115l-105 -595c-20 -113 -81 -161 -186 -161h-35v56h40c75 0 107 47 119 115l105 595c20 113 80 161 187 161z" />
    <glyph glyph-name="approxequal" unicode="&#x2248;" horiz-adv-x="669" 
d="M525 450h54c0 -97 -48 -136 -123 -136c-102 0 -167 117 -248 117c-41 0 -64 -25 -64 -85h-54c0 97 48 136 123 136c103 0 168 -117 248 -117c43 0 64 25 64 85zM525 245h54c0 -97 -48 -136 -123 -136c-102 0 -167 117 -248 117c-41 0 -64 -25 -64 -85h-54
c0 97 48 136 123 136c103 0 168 -117 248 -117c43 0 64 25 64 85z" />
    <glyph glyph-name="notequal" unicode="&#x2260;" horiz-adv-x="683" 
d="M291 157l-81 -127h-61l82 127h-141v54h176l93 142h-269v54h304l83 127h57l-82 -127h141v-54h-175l-92 -142h267v-54h-302z" />
    <glyph glyph-name="lessequal" unicode="&#x2264;" horiz-adv-x="684" 
d="M594 120l-504 175v64l504 175v-60l-417 -137v-20l417 -137v-60zM90 0v54h504v-54h-504z" />
    <glyph glyph-name="greaterequal" unicode="&#x2265;" horiz-adv-x="684" 
d="M594 295l-504 -175v60l417 137v20l-417 137v60l504 -175v-64zM594 54v-54h-504v54h504z" />
    <glyph glyph-name="lozenge" unicode="&#x25ca;" horiz-adv-x="518" 
d="M296 714l162 -357l-162 -357h-74l-162 357l162 357h74zM269 70l124 287l-124 287h-20l-124 -287l124 -287h20z" />
    <glyph glyph-name="commaaccent" unicode="&#xf6c3;" horiz-adv-x="156" 
d="M78 -215h-44l49 60v17h-41v79h84v-96z" />
    <glyph glyph-name="uniFEFF" unicode="&#xfeff;" horiz-adv-x="0" 
 />
    <glyph glyph-name="seven.numr" horiz-adv-x="306" 
d="M21 714h260v-50l-178 -331h-59l168 311v21h-191v49z" />
    <glyph glyph-name="eight.numr" horiz-adv-x="373" 
d="M187 672c-43 0 -77 -20 -77 -59c0 -37 34 -56 77 -56c41 0 76 19 76 56c0 39 -35 59 -76 59zM187 375c52 0 91 27 91 68c0 40 -39 65 -91 65c-53 0 -92 -25 -92 -65c0 -41 39 -68 92 -68zM101 528v12c-20 11 -45 36 -45 75c0 64 56 106 131 106s131 -42 131 -106
c0 -36 -25 -64 -46 -75v-12c28 -14 61 -41 61 -91c0 -64 -59 -111 -147 -111s-146 47 -146 111c0 49 33 78 61 91z" />
    <glyph glyph-name="nine.numr" horiz-adv-x="365" 
d="M173 461c-76 0 -133 53 -133 127c0 76 52 133 137 133c89 0 148 -50 148 -185c0 -116 -46 -210 -154 -210c-67 0 -109 42 -121 99h55c11 -33 33 -50 68 -50c55 0 88 42 96 115h-15c-15 -15 -45 -29 -81 -29zM179 672c-47 0 -84 -30 -84 -83c0 -52 38 -79 85 -79
s83 27 83 79c0 53 -37 83 -84 83z" />
    <glyph glyph-name="zero.dnom" horiz-adv-x="378" 
d="M338 190c0 -135 -63 -197 -149 -197c-87 0 -149 62 -149 197c0 136 62 198 149 198c86 0 149 -62 149 -198zM189 42c61 0 94 52 94 148s-33 149 -94 149c-63 0 -94 -53 -94 -149s31 -148 94 -148z" />
    <glyph glyph-name="one.dnom" horiz-adv-x="329" 
d="M192 49h97v-49h-249v49h97v264h-16l-80 -47v57l97 58h54v-332z" />
    <glyph glyph-name="two.dnom" horiz-adv-x="358" 
d="M124 49h194v-49h-277v62c21 15 41 29 60 44c33 24 70 53 91 72c25 23 58 53 58 92c0 44 -27 69 -74 69c-52 0 -79 -26 -81 -77h-55c3 91 64 126 137 126s128 -40 128 -117c0 -56 -33 -94 -78 -129l-103 -80v-13z" />
    <glyph glyph-name="six.numr" horiz-adv-x="365" 
d="M192 586c76 0 133 -53 133 -127c0 -76 -52 -133 -137 -133c-89 0 -148 50 -148 185c0 116 46 210 154 210c67 0 109 -42 121 -99h-55c-11 33 -33 50 -68 50c-55 0 -88 -42 -96 -115h15c15 15 45 29 81 29zM186 375c47 0 84 30 84 83c0 52 -38 79 -85 79s-83 -27 -83 -79
c0 -53 37 -83 84 -83z" />
    <glyph glyph-name="four.dnom" horiz-adv-x="387" 
d="M292 139h55v-49h-55v-90h-55v90h-197v53l175 238h77v-242zM108 139h129v172h-15l-114 -157v-15z" />
    <glyph glyph-name="five.dnom" horiz-adv-x="359" 
d="M187 261c85 0 132 -61 132 -130c0 -84 -54 -138 -138 -138c-92 0 -134 52 -141 123h55c7 -49 37 -74 84 -74c51 0 85 31 85 87c0 47 -30 83 -81 83c-36 0 -63 -12 -81 -37h-53l21 206h231v-49h-187l-8 -89h20c13 11 38 18 61 18z" />
    <glyph glyph-name="six.dnom" horiz-adv-x="365" 
d="M192 253c76 0 133 -53 133 -127c0 -76 -52 -133 -137 -133c-89 0 -148 50 -148 185c0 116 46 210 154 210c67 0 109 -42 121 -99h-55c-11 33 -33 50 -68 50c-55 0 -88 -42 -96 -115h15c15 15 45 29 81 29zM186 42c47 0 84 30 84 83c0 52 -38 79 -85 79s-83 -27 -83 -79
c0 -53 37 -83 84 -83z" />
    <glyph glyph-name="seven.dnom" horiz-adv-x="306" 
d="M21 381h260v-50l-178 -331h-59l168 311v21h-191v49z" />
    <glyph glyph-name="eight.dnom" horiz-adv-x="373" 
d="M187 339c-43 0 -77 -20 -77 -59c0 -37 34 -56 77 -56c41 0 76 19 76 56c0 39 -35 59 -76 59zM187 42c52 0 91 27 91 68c0 40 -39 65 -91 65c-53 0 -92 -25 -92 -65c0 -41 39 -68 92 -68zM101 195v12c-20 11 -45 36 -45 75c0 64 56 106 131 106s131 -42 131 -106
c0 -36 -25 -64 -46 -75v-12c28 -14 61 -41 61 -91c0 -64 -59 -111 -147 -111s-146 47 -146 111c0 49 33 78 61 91z" />
    <glyph glyph-name="nine.dnom" horiz-adv-x="365" 
d="M173 128c-76 0 -133 53 -133 127c0 76 52 133 137 133c89 0 148 -50 148 -185c0 -116 -46 -210 -154 -210c-67 0 -109 42 -121 99h55c11 -33 33 -50 68 -50c55 0 88 42 96 115h-15c-15 -15 -45 -29 -81 -29zM179 339c-47 0 -84 -30 -84 -83c0 -52 38 -79 85 -79
s83 27 83 79c0 53 -37 83 -84 83z" />
    <glyph glyph-name="zero.onum" horiz-adv-x="600" 
d="M300 513c139 0 246 -99 246 -263s-107 -263 -246 -263s-246 99 -246 263s107 263 246 263zM300 43c117 0 183 84 183 207c0 124 -66 207 -183 207s-183 -83 -183 -207c0 -123 66 -207 183 -207z" />
    <glyph glyph-name="one.onum" horiz-adv-x="437" 
d="M60 0v56h142v377h-19l-123 -82v68l123 81h82v-444h132v-56h-337z" />
    <glyph glyph-name="two.onum" horiz-adv-x="543" 
d="M493 56v-56h-438v75l206 107c109 56 149 88 149 163c0 68 -52 112 -141 112c-100 0 -151 -57 -151 -146h-63c0 109 73 202 214 202c140 0 204 -89 204 -167c0 -114 -88 -165 -173 -205c-17 -8 -49 -24 -77 -39l-52 -27v-19h322z" />
    <glyph glyph-name="three.onum" horiz-adv-x="555" 
d="M81 500h393v-76l-192 -168v-20c129 0 222 -76 222 -215c0 -145 -101 -227 -238 -227s-228 87 -236 202h63c8 -87 80 -146 173 -146c101 0 175 65 175 171c0 100 -62 162 -174 162c-21 0 -44 -2 -59 -6v81l187 166v20h-314v56z" />
    <glyph glyph-name="four.onum" horiz-adv-x="603" 
d="M455 56h100v-56h-100v-200h-63v200h-352v76l311 424h104v-444zM110 56h282v379h-20l-262 -359v-20z" />
    <glyph glyph-name="five.onum" horiz-adv-x="583" 
d="M302 273c147 0 225 -106 225 -232c0 -151 -92 -247 -232 -247c-149 0 -227 87 -235 202h65c11 -96 75 -146 167 -146c101 0 172 71 172 187c0 101 -64 180 -168 180c-69 0 -119 -24 -152 -73h-67l31 356h386v-56h-333l-18 -222h20c35 32 75 51 139 51z" />
    <glyph glyph-name="six.onum" horiz-adv-x="581" 
d="M312 451c128 0 222 -93 222 -226s-84 -238 -229 -238c-147 0 -248 90 -248 341c0 212 80 386 259 386c115 0 181 -68 200 -159h-63c-20 65 -63 103 -136 103c-124 0 -192 -115 -197 -278h20c27 32 85 71 172 71zM304 43c96 0 167 64 167 178c0 115 -74 174 -169 174
c-94 0 -168 -64 -168 -173c0 -112 77 -179 170 -179z" />
    <glyph glyph-name="seven.onum" horiz-adv-x="538" 
d="M483 424l-312 -624h-67l312 624v20h-366v56h433v-76z" />
    <glyph glyph-name="eight.onum" horiz-adv-x="600" 
d="M138 525c0 -85 75 -132 162 -132s162 47 162 132c0 84 -75 133 -162 133s-162 -49 -162 -133zM300 43c103 0 183 58 183 146c0 90 -76 148 -183 148s-183 -58 -183 -148c0 -88 80 -146 183 -146zM546 186c0 -117 -101 -199 -246 -199s-246 82 -246 199
c0 99 70 150 120 171v20c-40 21 -99 68 -99 149c0 113 95 188 225 188c131 0 226 -75 226 -188c0 -81 -60 -128 -100 -149v-20c50 -21 120 -72 120 -171z" />
    <glyph glyph-name="nine.onum" horiz-adv-x="581" 
d="M268 49c-128 0 -222 93 -222 226s84 238 229 238c147 0 248 -90 248 -341c0 -213 -80 -378 -259 -378c-115 0 -181 68 -200 159h63c20 -65 63 -103 136 -103c124 0 192 107 197 270h-20c-27 -32 -85 -71 -172 -71zM276 457c-96 0 -167 -64 -167 -178
c0 -115 74 -174 169 -174c94 0 168 64 168 173c0 112 -77 179 -170 179z" />
    <glyph glyph-name="zero.tnum" 
d="M315 714c144 0 251 -113 251 -364s-107 -363 -251 -363s-251 112 -251 363s107 364 251 364zM129 350c0 -97 15 -172 45 -224l240 497c-27 22 -60 33 -99 33c-121 0 -186 -107 -186 -306zM315 45c121 0 186 106 186 305c0 97 -15 172 -45 223l-240 -496
c27 -21 60 -32 99 -32z" />
    <glyph glyph-name="one.tnum" 
d="M63 0v58h238v572h-19l-171 -112v70l171 112h84v-642h204v-58h-507z" />
    <glyph glyph-name="two.tnum" 
d="M551 58v-58h-466v78l107 91c58 50 126 107 163 144c45 43 108 109 108 192c0 99 -61 151 -157 151c-88 0 -146 -46 -157 -142h-65c8 138 109 200 223 200c125 0 221 -69 221 -208c0 -96 -61 -166 -133 -235c-27 -25 -80 -72 -129 -115l-91 -78v-20h376z" />
    <glyph glyph-name="three.tnum" 
d="M115 700h393v-78l-192 -170v-20c129 0 223 -78 223 -217c0 -145 -102 -228 -239 -228s-228 87 -236 202h65c8 -87 80 -144 171 -144c101 0 174 63 174 170c0 100 -61 162 -173 162c-21 0 -44 -2 -59 -6v82l188 169v20h-315v58z" />
    <glyph glyph-name="four.tnum" 
d="M473 229h100v-58h-100v-171h-65v171h-351v78l311 451h105v-471zM128 229h280v404h-20l-260 -384v-20z" />
    <glyph glyph-name="five.tnum" 
d="M326 469c148 0 226 -109 226 -234c0 -151 -93 -248 -233 -248c-149 0 -227 87 -235 202h65c11 -96 75 -144 167 -144c101 0 171 69 171 186c0 101 -63 180 -167 180c-69 0 -119 -24 -151 -72h-69l31 361h387v-58h-333l-18 -225h20c35 32 75 52 139 52z" />
    <glyph glyph-name="six.tnum" 
d="M333 452c128 0 223 -95 223 -227c0 -133 -85 -238 -230 -238c-146 0 -249 90 -249 341c0 212 81 386 260 386c115 0 181 -68 200 -159h-65c-20 65 -61 101 -134 101c-124 0 -192 -112 -197 -276h20c26 31 85 72 172 72zM325 45c95 0 166 62 166 176s-73 173 -168 173
c-93 0 -167 -63 -167 -172c0 -112 75 -177 169 -177z" />
    <glyph glyph-name="seven.tnum" 
d="M526 622l-312 -622h-69l313 622v20h-365v58h433v-78z" />
    <glyph glyph-name="eight.tnum" 
d="M154 525c0 -85 74 -131 161 -131s161 46 161 131s-74 131 -161 131s-161 -46 -161 -131zM315 45c103 0 182 55 182 144c0 90 -75 147 -182 147s-182 -57 -182 -147c0 -89 79 -144 182 -144zM562 186c0 -117 -102 -199 -247 -199s-247 82 -247 199c0 100 70 149 121 171
v20c-40 21 -100 68 -100 149c0 113 95 188 226 188s227 -75 227 -188c0 -81 -61 -128 -101 -149v-20c51 -22 121 -71 121 -171z" />
    <glyph glyph-name="nine.tnum" 
d="M297 249c-128 0 -223 95 -223 227c0 133 85 238 230 238c146 0 249 -90 249 -341c0 -212 -81 -386 -260 -386c-115 0 -181 68 -200 159h65c20 -65 61 -101 134 -101c124 0 192 112 197 276h-20c-26 -31 -85 -72 -172 -72zM305 656c-95 0 -166 -62 -166 -176
s73 -173 168 -173c93 0 167 63 167 172c0 112 -75 177 -169 177z" />
    <glyph glyph-name="dollar.tnum" 
d="M289 798h51v-86c118 -8 189 -86 205 -181h-64c-15 67 -54 115 -141 123v-258l58 -12c105 -23 166 -81 166 -196c0 -107 -72 -196 -224 -201v-85h-51v87c-129 12 -207 88 -223 199h65c15 -83 75 -129 158 -140v297l-46 9c-100 19 -151 81 -151 173c0 95 65 178 197 186v85
zM340 332v-286c92 4 159 54 159 142c0 79 -48 124 -132 139zM289 409v246c-76 -5 -132 -52 -132 -127c0 -64 33 -98 113 -115z" />
    <glyph glyph-name="Euro.tnum" 
d="M391 319l-18 -52h-206c19 -145 85 -222 193 -222c92 0 146 54 162 146h65c-20 -129 -102 -204 -227 -204c-135 0 -237 87 -258 280h-73l18 52h51v31c0 16 0 32 1 47h-70l18 52h58c27 181 129 265 255 265c124 0 198 -70 221 -195h-66c-15 87 -59 137 -155 137
c-100 0 -169 -72 -190 -207h266l-18 -52h-254c-1 -15 -1 -31 -1 -47v-31h228z" />
    <glyph glyph-name="sterling.tnum" 
d="M184 58h392v-58h-525v58h21c51 0 72 33 72 94v138h-93v58h93v156c0 137 79 210 202 210c117 0 190 -68 194 -195h-64c-3 80 -36 137 -130 137c-100 0 -137 -71 -137 -153v-155h217v-58h-217v-129c0 -32 -1 -59 -25 -83v-20z" />
    <glyph glyph-name="yen.tnum" 
d="M131 296v52h102l-192 352h70l190 -352h28l190 352h70l-193 -352h103v-52h-131l-21 -38v-40h152v-52h-152v-166h-65v166h-151v52h151v40l-21 38h-130z" />
    <glyph glyph-name="uni20BD.tnum" 
d="M49 304v52h89v344h230c145 0 224 -73 224 -198c0 -124 -79 -198 -224 -198h-165v-78h241v-52h-241v-174h-65v174h-89v52h89v78h-89zM203 356h154c125 0 170 60 170 146c0 85 -45 140 -170 140h-154v-286z" />
    <glyph glyph-name="uni20B4.tnum" 
d="M496 177h64c-20 -115 -105 -190 -241 -190c-140 0 -228 92 -228 200c0 28 5 54 15 77h-58v52h533v-52h-407c-12 -21 -18 -47 -18 -77c0 -86 68 -142 161 -142c89 0 158 43 179 132zM332 714c128 0 208 -89 208 -186c0 -31 -8 -58 -21 -82h62v-52h-533v52h396
c21 18 31 45 31 82c0 77 -57 128 -141 128c-92 0 -138 -42 -157 -113h-64c19 99 98 171 219 171z" />
    <glyph glyph-name="uni20B8.tnum" 
d="M76 518v52h477v-52h-206v-518h-65v518h-206zM76 648v52h477v-52h-477z" />
    <glyph glyph-name="cent.tnum" 
d="M467 143h63c-19 -87 -82 -147 -182 -155v-68h-51v69c-136 13 -209 126 -209 261s73 248 209 261v69h51v-68c103 -8 161 -68 180 -151h-63c-17 51 -53 88 -117 95v-412c68 7 104 43 119 99zM151 252c0 -100 43 -191 146 -207v410c-104 -13 -146 -104 -146 -203z" />
    <glyph glyph-name="tilde.cap" horiz-adv-x="405" 
d="M318 896h47c0 -92 -34 -129 -90 -129c-66 0 -109 80 -149 80c-33 0 -39 -40 -39 -80h-47c0 92 34 129 90 129c66 0 109 -80 149 -80c33 0 39 39 39 80z" />
    <glyph glyph-name="hungarumlaut.cap" horiz-adv-x="379" 
d="M195 896l-99 -129h-56l77 129h78zM339 896l-99 -129h-56l77 129h78z" />
    <glyph glyph-name="breve.cap" horiz-adv-x="352" 
d="M260 896h52v-12c0 -76 -62 -117 -136 -117s-136 41 -136 117v12h52v-11c0 -44 36 -70 84 -70s84 26 84 70v11z" />
    <glyph glyph-name="dotaccent.cap" horiz-adv-x="149" 
d="M109 817h-69v79h69v-79z" />
    <glyph glyph-name="caron.cap" horiz-adv-x="360" 
d="M145 767l-105 129h66l65 -79h20l65 79h64l-105 -129h-70z" />
    <glyph glyph-name="ring.cap" horiz-adv-x="291" 
d="M146 966c58 0 105 -47 105 -105s-47 -106 -105 -106s-106 48 -106 106s48 105 106 105zM146 801c35 0 60 25 60 60s-25 60 -60 60s-60 -25 -60 -60s25 -60 60 -60z" />
    <glyph glyph-name="grave.cap" horiz-adv-x="241" 
d="M145 767l-105 129h78l83 -129h-56z" />
    <glyph glyph-name="acute.cap" horiz-adv-x="241" 
d="M201 896l-105 -129h-56l83 129h78z" />
    <glyph glyph-name="dieresis.cap" horiz-adv-x="325" 
d="M109 817h-69v79h69v-79zM285 817h-69v79h69v-79z" />
    <glyph glyph-name="circumflex.cap" horiz-adv-x="360" 
d="M40 767l105 129h70l105 -129h-64l-65 79h-20l-65 -79h-66z" />
    <glyph glyph-name="macron.cap" horiz-adv-x="354" 
d="M314 817h-274v54h274v-54z" />
    <glyph glyph-name="cyrbreve" horiz-adv-x="407" 
d="M295 727h53v-12c0 -86 -65 -133 -145 -133c-81 0 -144 47 -144 133v12h53v-12c0 -52 36 -84 91 -84c56 0 92 32 92 84v12z" />
    <glyph glyph-name="cyrbreve.cap" horiz-adv-x="416" 
d="M318 904h58c0 -101 -77 -156 -169 -156c-91 0 -167 55 -167 156h58c0 -64 46 -102 109 -102c64 0 111 38 111 102z" />
    <glyph glyph-name="hyphen.case" horiz-adv-x="360" 
d="M310 332h-260v57h260v-57z" />
    <glyph glyph-name="endash.case" horiz-adv-x="615" 
d="M565 332h-515v57h515v-57z" />
    <glyph glyph-name="emdash.case" horiz-adv-x="875" 
d="M825 332h-775v57h775v-57z" />
    <glyph glyph-name="emdash.ss02.case" horiz-adv-x="1445" 
d="M1395 332h-1345v57h1345v-57z" />
    <glyph glyph-name="bracketleft.case" horiz-adv-x="301" 
d="M241 -93h-161v900h161v-54h-98v-792h98v-54z" />
    <glyph glyph-name="bracketright.case" horiz-adv-x="301" 
d="M221 -93h-161v54h98v792h-98v54h161v-900z" />
    <glyph glyph-name="braceleft.case" horiz-adv-x="375" 
d="M163 367v-20c31 -11 50 -41 50 -102v-188c0 -72 37 -96 89 -96h33v-54h-33c-86 0 -152 48 -152 149v177c0 61 -9 97 -60 97h-10v54h10c51 0 60 36 60 97v177c0 101 66 149 152 149h33v-54h-33c-52 0 -89 -24 -89 -96v-188c0 -61 -19 -91 -50 -102z" />
    <glyph glyph-name="braceright.case" horiz-adv-x="375" 
d="M212 347v20c-31 11 -50 41 -50 102v188c0 72 -37 96 -89 96h-33v54h33c86 0 152 -48 152 -149v-177c0 -61 9 -97 60 -97h10v-54h-10c-51 0 -60 -36 -60 -97v-177c0 -101 -66 -149 -152 -149h-33v54h33c52 0 89 24 89 96v188c0 61 19 91 50 102z" />
    <glyph glyph-name="parenleft.case" horiz-adv-x="271" 
d="M113 362c0 -201 71 -343 159 -455h-64c-91 107 -160 260 -160 455c0 189 66 338 151 445h64c-85 -109 -150 -251 -150 -445z" />
    <glyph glyph-name="parenright.case" horiz-adv-x="271" 
d="M158 362c0 194 -65 336 -150 445h64c85 -107 151 -256 151 -445c0 -195 -69 -348 -160 -455h-64c88 112 159 254 159 455z" />
    <glyph glyph-name="guillemotleft.case" horiz-adv-x="526" 
d="M117 358v-20l158 -168h-71l-144 148v59l144 149h71zM308 358v-20l158 -168h-71l-144 148v59l144 149h71z" />
    <glyph glyph-name="guillemotright.case" horiz-adv-x="526" 
d="M409 338v20l-158 168h71l144 -149v-59l-144 -148h-71zM218 338v20l-158 168h71l144 -149v-59l-144 -148h-71z" />
    <glyph glyph-name="guilsinglleft.case" horiz-adv-x="335" 
d="M117 358v-20l158 -168h-71l-144 148v59l144 149h71z" />
    <glyph glyph-name="guilsinglright.case" horiz-adv-x="335" 
d="M218 338v20l-158 168h71l144 -149v-59l-144 -148h-71z" />
    <glyph glyph-name="exclamdown.case" horiz-adv-x="302" 
d="M184 0h-66v297l13 239h41l12 -239v-297zM109 714h84v-102h-84v102z" />
    <glyph glyph-name="questiondown.case" horiz-adv-x="534" 
d="M272 -13c-115 0 -203 71 -203 187c0 104 50 150 130 214c40 32 58 47 58 119v29h63v-29c0 -91 -30 -117 -86 -165c-61 -50 -102 -86 -102 -168c0 -68 49 -134 140 -134s142 42 149 145h63c-7 -129 -89 -198 -212 -198zM246 714h84v-102h-84v102z" />
    <glyph glyph-name="a.ss03" horiz-adv-x="604" 
d="M276 513c83 0 134 -33 162 -69h20v56h61v-500h-61v56h-20c-28 -35 -79 -69 -162 -69c-140 0 -223 115 -223 263c0 149 83 263 223 263zM284 43c123 0 172 102 172 207c0 106 -49 207 -172 207c-109 0 -168 -84 -168 -207s59 -207 168 -207z" />
    <glyph glyph-name="agrave.ss03" horiz-adv-x="605" 
d="M277 513c83 0 134 -33 162 -69h20v56h61v-500h-61v56h-20c-28 -35 -79 -69 -162 -69c-140 0 -223 115 -223 263c0 149 83 263 223 263zM285 43c123 0 172 102 172 207c0 106 -49 207 -172 207c-109 0 -168 -84 -168 -207s59 -207 168 -207zM272 582l-105 145h78l83 -145
h-56z" />
    <glyph glyph-name="aacute.ss03" horiz-adv-x="605" 
d="M277 513c83 0 134 -33 162 -69h20v56h61v-500h-61v56h-20c-28 -35 -79 -69 -162 -69c-140 0 -223 115 -223 263c0 149 83 263 223 263zM285 43c123 0 172 102 172 207c0 106 -49 207 -172 207c-109 0 -168 -84 -168 -207s59 -207 168 -207zM417 727l-105 -145h-56l83 145
h78z" />
    <glyph glyph-name="acircumflex.ss03" horiz-adv-x="605" 
d="M277 513c83 0 134 -33 162 -69h20v56h61v-500h-61v56h-20c-28 -35 -79 -69 -162 -69c-140 0 -223 115 -223 263c0 149 83 263 223 263zM285 43c123 0 172 102 172 207c0 106 -49 207 -172 207c-109 0 -168 -84 -168 -207s59 -207 168 -207zM326 727l105 -145h-63l-68 95
h-20l-68 -95h-61l105 145h70z" />
    <glyph glyph-name="atilde.ss03" horiz-adv-x="605" 
d="M277 513c83 0 134 -33 162 -69h20v56h61v-500h-61v56h-20c-28 -35 -79 -69 -162 -69c-140 0 -223 115 -223 263c0 149 83 263 223 263zM285 43c123 0 172 102 172 207c0 106 -49 207 -172 207c-109 0 -168 -84 -168 -207s59 -207 168 -207zM407 718h47
c0 -92 -34 -129 -90 -129c-66 0 -109 80 -149 80c-33 0 -39 -40 -39 -80h-47c0 92 34 129 90 129c66 0 109 -80 149 -80c33 0 39 39 39 80z" />
    <glyph glyph-name="adieresis.ss03" horiz-adv-x="605" 
d="M277 513c83 0 134 -33 162 -69h20v56h61v-500h-61v56h-20c-28 -35 -79 -69 -162 -69c-140 0 -223 115 -223 263c0 149 83 263 223 263zM285 43c123 0 172 102 172 207c0 106 -49 207 -172 207c-109 0 -168 -84 -168 -207s59 -207 168 -207zM237 648h-69v79h69v-79z
M413 648h-69v79h69v-79z" />
    <glyph glyph-name="aring.ss03" horiz-adv-x="605" 
d="M277 513c83 0 134 -33 162 -69h20v56h61v-500h-61v56h-20c-28 -35 -79 -69 -162 -69c-140 0 -223 115 -223 263c0 149 83 263 223 263zM285 43c123 0 172 102 172 207c0 106 -49 207 -172 207c-109 0 -168 -84 -168 -207s59 -207 168 -207zM287 793
c58 0 105 -47 105 -105s-47 -106 -105 -106s-106 48 -106 106s48 105 106 105zM287 628c35 0 60 25 60 60s-25 60 -60 60s-60 -25 -60 -60s25 -60 60 -60z" />
    <glyph glyph-name="amacron.ss03" horiz-adv-x="604" 
d="M276 513c83 0 134 -33 162 -69h20v56h61v-500h-61v56h-20c-28 -35 -79 -69 -162 -69c-140 0 -223 115 -223 263c0 149 83 263 223 263zM284 43c123 0 172 102 172 207c0 106 -49 207 -172 207c-109 0 -168 -84 -168 -207s59 -207 168 -207zM432 648h-274v54h274v-54z" />
    <glyph glyph-name="abreve.ss03" horiz-adv-x="604" 
d="M276 513c83 0 134 -33 162 -69h20v56h61v-500h-61v56h-20c-28 -35 -79 -69 -162 -69c-140 0 -223 115 -223 263c0 149 83 263 223 263zM284 43c123 0 172 102 172 207c0 106 -49 207 -172 207c-109 0 -168 -84 -168 -207s59 -207 168 -207zM390 727h52v-14
c0 -84 -62 -131 -136 -131s-136 47 -136 131v14h52v-14c0 -51 36 -83 84 -83s84 32 84 83v14z" />
    <glyph glyph-name="aogonek.ss03" horiz-adv-x="604" 
d="M276 513c83 0 134 -33 162 -69h20v56h61v-500c-41 -21 -77 -57 -77 -96c0 -37 31 -56 79 -57v-47h-17c-71 0 -120 30 -120 95c0 45 38 91 74 107v54h-20c-28 -35 -79 -69 -162 -69c-140 0 -223 115 -223 263c0 149 83 263 223 263zM284 43c123 0 172 102 172 207
c0 106 -49 207 -172 207c-109 0 -168 -84 -168 -207s59 -207 168 -207z" />
    <glyph glyph-name="t.ss04" horiz-adv-x="344" 
d="M183 0h-63v444h-92v56h92v155h63v-155h133v-56h-133v-444z" />
    <glyph glyph-name="tcaron.ss04" horiz-adv-x="366" 
d="M334 635h-41v92h84v-109l-44 -67h-43l44 67v17zM183 0h-63v444h-92v56h92v155h63v-155h133v-56h-133v-444z" />
    <glyph glyph-name="uni0163.ss04" horiz-adv-x="344" 
d="M183 0h-63v444h-92v56h92v155h63v-155h133v-56h-133v-444zM146 -215h-44l49 60v17h-41v79h84v-96z" />
    <glyph glyph-name="Y.ss05" horiz-adv-x="608" 
d="M249 0h-70l102 214l-264 500h73l211 -398h28l190 398h71z" />
    <glyph glyph-name="Yacute.ss05" horiz-adv-x="608" 
d="M249 0h-70l102 214l-264 500h73l211 -398h28l190 398h71zM434 896l-105 -129h-56l83 129h78z" />
    <glyph glyph-name="Ydieresis.ss05" horiz-adv-x="608" 
d="M249 0h-70l102 214l-264 500h73l211 -398h28l190 398h71zM259 817h-69v79h69v-79zM435 817h-69v79h69v-79z" />
    <glyph glyph-name="ampersand.ss06" horiz-adv-x="646" 
d="M606 407v-58h-71v-139c0 -141 -101 -223 -242 -223c-143 0 -244 90 -244 209c0 104 61 153 123 175v19c-52 20 -97 64 -97 147c0 115 98 177 206 177c119 0 192 -58 207 -154h-64c-16 64 -64 96 -143 96c-89 0 -141 -53 -141 -120c0 -76 48 -129 152 -129h41v-58h-41
c-104 0 -178 -47 -178 -153c0 -96 77 -151 179 -151c121 0 177 64 177 165v197h136z" />
    <glyph glyph-name="zero.ss07" horiz-adv-x="616" 
d="M309 714c144 0 251 -113 251 -364s-107 -363 -251 -363s-251 112 -251 363s107 364 251 364zM123 350c0 -97 15 -172 45 -224l240 497c-27 22 -60 33 -99 33c-121 0 -186 -107 -186 -306zM309 45c121 0 186 106 186 305c0 97 -15 172 -45 223l-240 -496
c27 -21 60 -32 99 -32z" />
    <glyph glyph-name="emdash.ss02" horiz-adv-x="1445" 
d="M1395 247h-1345v57h1345v-57z" />
    <glyph glyph-name="uni0430.ss03" horiz-adv-x="605" 
d="M277 513c83 0 134 -33 162 -69h20v56h61v-500h-61v56h-20c-28 -35 -79 -69 -162 -69c-140 0 -223 115 -223 263c0 149 83 263 223 263zM285 43c123 0 172 102 172 207c0 106 -49 207 -172 207c-109 0 -168 -84 -168 -207s59 -207 168 -207z" />
    <glyph glyph-name="uni0423.ss08" horiz-adv-x="608" 
d="M106 0v64h25c53 0 86 17 118 84l32 66l-264 500h73l212 -398h28l190 398h70l-264 -554c-53 -114 -99 -160 -195 -160h-25z" />
    <glyph glyph-name="uni040E.ss08" horiz-adv-x="597" 
d="M412 904h58c0 -101 -77 -156 -169 -156c-91 0 -167 55 -167 156h58c0 -64 46 -102 109 -102c64 0 111 38 111 102zM103 0v64h25c53 0 86 17 118 84l32 66l-264 500h73l212 -398h28l190 398h70l-264 -554c-53 -114 -99 -160 -195 -160h-25z" />
    <glyph glyph-name="five.numr" horiz-adv-x="359" 
d="M187 594c85 0 132 -61 132 -130c0 -84 -54 -138 -138 -138c-92 0 -134 52 -141 123h55c7 -49 37 -74 84 -74c51 0 85 31 85 87c0 47 -30 83 -81 83c-36 0 -63 -12 -81 -37h-53l21 206h231v-49h-187l-8 -89h20c13 11 38 18 61 18z" />
    <glyph glyph-name="four.numr" horiz-adv-x="387" 
d="M292 472h55v-49h-55v-90h-55v90h-197v53l175 238h77v-242zM108 472h129v172h-15l-114 -157v-15z" />
    <glyph glyph-name="three.numr" horiz-adv-x="363" 
d="M219 585v-13c60 -9 106 -51 106 -119c0 -81 -62 -127 -143 -127c-83 0 -139 52 -143 124h54c4 -47 42 -75 89 -75c51 0 88 29 88 78c0 47 -32 77 -87 77c-17 0 -23 0 -35 -3v55l83 68v15h-163v49h242v-55z" />
    <glyph glyph-name="two.numr" horiz-adv-x="358" 
d="M124 382h194v-49h-277v62c21 15 41 29 60 44c33 24 70 53 91 72c25 23 58 53 58 92c0 44 -27 69 -74 69c-52 0 -79 -26 -81 -77h-55c3 91 64 126 137 126s128 -40 128 -117c0 -56 -33 -94 -78 -129l-103 -80v-13z" />
    <glyph glyph-name="one.numr" horiz-adv-x="329" 
d="M192 382h97v-49h-249v49h97v264h-16l-80 -47v57l97 58h54v-332z" />
    <glyph glyph-name="quotedbl.ss01" horiz-adv-x="317" 
d="M80 473v241h34v-241h-34zM203 473v241h34v-241h-34z" />
    <glyph glyph-name="numbersign.ss01" horiz-adv-x="551" 
d="M300 0l32 208h-159l-32 -208h-34l32 208h-104v31h110l34 222h-102v31h107l33 208h34l-34 -208h161l33 208h34l-33 -208h104v-31h-109l-35 -222h103v-31h-108l-32 -208h-35zM213 461l-35 -222h160l35 222h-160z" />
    <glyph glyph-name="quotesingle.ss01" horiz-adv-x="194" 
d="M80 473v241h34v-241h-34z" />
    <glyph glyph-name="parenleft.ss01" horiz-adv-x="238" 
d="M190 759h42c-108 -137 -148 -287 -148 -450s40 -313 148 -450h-43c-101 137 -139 287 -139 450c0 164 39 313 140 450z" />
    <glyph glyph-name="parenright.ss01" horiz-adv-x="240" 
d="M6 759h42c101 -137 140 -286 140 -450c0 -163 -38 -313 -139 -450h-43c108 137 148 287 148 450s-40 313 -148 450z" />
    <glyph glyph-name="bracketleft.ss01" horiz-adv-x="258" 
d="M198 -141h-118v900h118v-31h-84v-838h84v-31z" />
    <glyph glyph-name="bracketright.ss01" horiz-adv-x="258" 
d="M178 -141h-118v31h84v838h-84v31h118v-900z" />
    <glyph glyph-name="braceleft.ss01" horiz-adv-x="337" 
d="M137 318v-18c23 -9 36 -31 36 -91v-215c0 -72 25 -104 94 -104h30v-31h-30c-80 0 -128 35 -128 136v204c0 61 -5 95 -46 95h-13v30h13c41 0 46 34 46 95v204c0 101 48 136 128 136h30v-31h-30c-69 0 -94 -32 -94 -104v-215c0 -60 -13 -82 -36 -91z" />
    <glyph glyph-name="braceright.ss01" horiz-adv-x="337" 
d="M200 300v18c-23 9 -36 31 -36 91v215c0 72 -25 104 -94 104h-30v31h30c80 0 128 -35 128 -136v-204c0 -61 5 -95 46 -95h13v-30h-13c-41 0 -46 -34 -46 -95v-204c0 -101 -48 -136 -128 -136h-30v31h30c69 0 94 32 94 104v215c0 60 13 82 36 91z" />
    <glyph glyph-name="asterisk.ss01" horiz-adv-x="452" 
d="M209 714h34l-1 -180l170 60l10 -35l-170 -55l107 -141l-28 -23l-105 147l-105 -147l-28 23l108 142l-171 54l11 35l169 -60z" />
    <glyph glyph-name="plus.ss01" horiz-adv-x="680" 
d="M324 298v236h33v-236h235v-31h-235v-237h-33v237h-236v31h236z" />
    <glyph glyph-name="minus.ss01" horiz-adv-x="684" 
d="M594 267h-504v31h504v-31z" />
    <glyph glyph-name="less.ss01" horiz-adv-x="684" 
d="M594 76v-33l-504 216v44l504 216v-33l-454 -196v-18z" />
    <glyph glyph-name="equal.ss01" horiz-adv-x="683" 
d="M593 201v-31h-503v31h503zM593 393v-31h-503v31h503z" />
    <glyph glyph-name="greater.ss01" horiz-adv-x="684" 
d="M90 43v33l454 196v18l-454 196v33l504 -216v-44z" />
    <glyph glyph-name="hyphen.ss01" horiz-adv-x="360" 
d="M310 260h-260v31h260v-31z" />
    <glyph glyph-name="endash.ss01" horiz-adv-x="615" 
d="M565 260h-515v31h515v-31z" />
    <glyph glyph-name="emdash.ss01" horiz-adv-x="875" 
d="M825 260h-775v31h775v-31z" />
    <glyph glyph-name="emdash.ss01.ss02" horiz-adv-x="1445" 
d="M1395 260h-1345v31h1345v-31z" />
    <glyph glyph-name="underscore.ss01" horiz-adv-x="502" 
d="M503 -113h-504v31h504v-31z" />
    <glyph glyph-name="slash.ss01" horiz-adv-x="365" 
d="M36 -141h-36l302 900h33z" />
    <glyph glyph-name="bar.ss01" horiz-adv-x="214" 
d="M90 -141v900h34v-900h-34z" />
    <glyph glyph-name="backslash.ss01" horiz-adv-x="365" 
d="M365 -141h-36l-299 900h33z" />
    <glyph glyph-name="degree.ss01" horiz-adv-x="461" 
d="M40 523c0 114 82 198 190 198s191 -84 191 -198c0 -113 -83 -197 -191 -197s-190 84 -190 197zM74 523c0 -94 65 -166 156 -166c92 0 157 72 157 166c0 96 -65 167 -157 167c-91 0 -156 -71 -156 -167z" />
    <glyph glyph-name="guillemotleft.ss01" horiz-adv-x="483" 
d="M96 291v-18l161 -169h-42l-155 158v39l154 159h42zM262 291v-18l161 -169h-42l-155 158v39l154 159h42z" />
    <glyph glyph-name="guillemotright.ss01" horiz-adv-x="483" 
d="M387 273v18l-161 169h42l155 -158v-39l-154 -159h-42zM221 273v18l-161 169h42l155 -158v-39l-154 -159h-42z" />
    <glyph glyph-name="guilsinglleft.ss01" horiz-adv-x="317" 
d="M96 291v-18l161 -169h-42l-155 158v39l154 159h42z" />
    <glyph glyph-name="guilsinglright.ss01" horiz-adv-x="317" 
d="M221 273v18l-160 169h42l154 -159v-39l-155 -158h-42z" />
    <glyph glyph-name="quoteleft.ss01" horiz-adv-x="234" 
d="M106 610h33v-102h-64v119l48 87h31l-48 -87v-17z" />
    <glyph glyph-name="quoteright.ss01" horiz-adv-x="234" 
d="M123 612h-33v102h64v-119l-48 -87h-31l48 87v17z" />
    <glyph glyph-name="quotesinglbase.ss01" horiz-adv-x="234" 
d="M123 0h-33v102h64v-119l-48 -87h-31l48 87v17z" />
    <glyph glyph-name="quotedblleft.ss01" horiz-adv-x="371" 
d="M243 610h33v-102h-64v119l48 87h31l-48 -87v-17zM106 610h33v-102h-64v119l48 87h31l-48 -87v-17z" />
    <glyph glyph-name="quotedblright.ss01" horiz-adv-x="371" 
d="M123 612h-33v102h64v-119l-48 -87h-31l48 87v17zM260 612h-33v102h64v-119l-48 -87h-31l48 87v17z" />
    <glyph glyph-name="quotedblbase.ss01" horiz-adv-x="371" 
d="M123 0h-33v102h64v-119l-48 -87h-31l48 87v17zM260 0h-33v102h64v-119l-48 -87h-31l48 87v17z" />
    <glyph glyph-name="arrowleft.ss01" horiz-adv-x="827" 
d="M298 500h46l-213 -214v-20h631v-31h-631v-21l213 -214h-46l-250 250z" />
    <glyph glyph-name="arrowup.ss01" horiz-adv-x="680" 
d="M590 464v-46l-214 215h-19v-633h-34v633h-19l-214 -215v46l250 250z" />
    <glyph glyph-name="arrowright.ss01" horiz-adv-x="827" 
d="M483 500h46l250 -250l-250 -250h-46l213 214v21h-631v31h631v20z" />
    <glyph glyph-name="arrowdown.ss01" horiz-adv-x="680" 
d="M90 250v46l214 -215h19v633h34v-633h19l214 215v-46l-250 -250z" />
    <glyph glyph-name="uni2196.ss01" horiz-adv-x="696" 
d="M443 714l32 -32h-301l-13 -14l445 -447l-23 -23l-447 446l-13 -14v-302l-33 33v353h353z" />
    <glyph glyph-name="uni2197.ss01" horiz-adv-x="696" 
d="M221 682l32 32h353v-353l-33 -33v302l-13 14l-447 -446l-23 23l445 447l-13 14h-301z" />
    <glyph glyph-name="uni2198.ss01" horiz-adv-x="696" 
d="M475 32l-32 -32h-353v353l33 33v-302l13 -14l447 446l23 -23l-445 -447l13 -14h301z" />
    <glyph glyph-name="uni2199.ss01" horiz-adv-x="696" 
d="M253 0l-32 32h301l13 14l-445 447l23 23l447 -446l13 14v302l33 -33v-353h-353z" />
    <glyph glyph-name="parenleft.ss01.case" horiz-adv-x="238" 
d="M190 807h42c-108 -137 -148 -287 -148 -450s40 -313 148 -450h-43c-101 137 -139 287 -139 450c0 164 39 313 140 450z" />
    <glyph glyph-name="parenright.ss01.case" horiz-adv-x="238" 
d="M6 807h42c101 -137 140 -286 140 -450c0 -163 -38 -313 -139 -450h-43c108 137 148 287 148 450s-40 313 -148 450z" />
    <glyph glyph-name="bracketleft.ss01.case" horiz-adv-x="258" 
d="M198 -93h-118v900h118v-31h-84v-838h84v-31z" />
    <glyph glyph-name="bracketright.ss01.case" horiz-adv-x="258" 
d="M178 -93h-118v31h84v838h-84v31h118v-900z" />
    <glyph glyph-name="braceleft.ss01.case" horiz-adv-x="337" 
d="M137 366v-18c23 -9 36 -31 36 -91v-215c0 -72 25 -104 94 -104h30v-31h-30c-80 0 -128 35 -128 136v204c0 61 -5 95 -46 95h-13v30h13c41 0 46 34 46 95v204c0 101 48 136 128 136h30v-31h-30c-69 0 -94 -32 -94 -104v-215c0 -60 -13 -82 -36 -91z" />
    <glyph glyph-name="braceright.ss01.case" horiz-adv-x="337" 
d="M200 348v18c-23 9 -36 31 -36 91v215c0 72 -25 104 -94 104h-30v31h30c80 0 128 -35 128 -136v-204c0 -61 5 -95 46 -95h13v-30h-13c-41 0 -46 -34 -46 -95v-204c0 -101 -48 -136 -128 -136h-30v31h30c69 0 94 32 94 104v215c0 60 13 82 36 91z" />
    <glyph glyph-name="guillemotleft.ss01.case" horiz-adv-x="483" 
d="M96 357v-18l161 -169h-42l-155 158v39l154 159h42zM262 357v-18l161 -169h-42l-155 158v39l154 159h42z" />
    <glyph glyph-name="guillemotright.ss01.case" horiz-adv-x="483" 
d="M387 339v18l-161 169h42l155 -158v-39l-154 -159h-42zM221 339v18l-161 169h42l155 -158v-39l-154 -159h-42z" />
    <glyph glyph-name="guilsinglleft.ss01.case" horiz-adv-x="317" 
d="M96 357v-18l161 -169h-42l-155 158v39l154 159h42z" />
    <glyph glyph-name="guilsinglright.ss01.case" horiz-adv-x="317" 
d="M221 339v18l-160 169h42l154 -159v-39l-155 -158h-42z" />
    <glyph glyph-name="hyphen.ss01.case" horiz-adv-x="360" 
d="M310 345h-260v31h260v-31z" />
    <glyph glyph-name="endash.ss01.case" horiz-adv-x="615" 
d="M565 345h-515v31h515v-31z" />
    <glyph glyph-name="emdash.ss01.case" horiz-adv-x="875" 
d="M825 345h-775v31h775v-31z" />
    <glyph glyph-name="emdash.ss01.ss02.case" horiz-adv-x="1445" 
d="M1395 345h-1345v31h1345v-31z" />
    <glyph glyph-name="zero.numr" horiz-adv-x="378" 
d="M338 523c0 -135 -63 -197 -149 -197c-87 0 -149 62 -149 197c0 136 62 198 149 198c86 0 149 -62 149 -198zM189 375c61 0 94 52 94 148s-33 149 -94 149c-63 0 -94 -53 -94 -149s31 -148 94 -148z" />
    <glyph glyph-name="three.dnom" horiz-adv-x="367" 
d="M220 252v-13c60 -9 106 -51 106 -119c0 -81 -62 -127 -143 -127c-83 0 -139 52 -143 124h54c4 -47 42 -75 89 -75c51 0 88 29 88 78c0 47 -32 77 -87 77c-17 0 -23 0 -35 -3v55l83 68v15h-163v49h242v-55z" />
    </font>
</defs>
</svg>
